<?xml version="1.0" encoding="UTF-8"?>
<svg version="1.1" xmlns="http://www.w3.org/2000/svg" width="500" height="500">
<path d="M0 0 C1.30848404 0.00190338 1.30848404 0.00190338 2.6434021 0.00384521 C52.84750604 0.14333148 97.65981046 15.42586173 138.33203125 44.93554688 C139.73051777 45.94731873 141.14426594 46.93797512 142.5625 47.921875 C143.0575 48.33953125 143.5525 48.7571875 144.0625 49.1875 C144.0625 49.8475 144.0625 50.5075 144.0625 51.1875 C144.94615234 51.59548828 144.94615234 51.59548828 145.84765625 52.01171875 C152.42489253 55.50333801 157.63598497 61.66658414 162.875 66.875 C163.43823975 67.43356689 164.00147949 67.99213379 164.58178711 68.56762695 C172.0625 76.07755699 172.0625 76.07755699 172.0625 79.1875 C172.7225 79.1875 173.3825 79.1875 174.0625 79.1875 C174.0625 79.8475 174.0625 80.5075 174.0625 81.1875 C174.7225 81.1875 175.3825 81.1875 176.0625 81.1875 C177.69679751 83.2819968 179.20417234 85.36532091 180.6875 87.5625 C181.10773438 88.16578125 181.52796875 88.7690625 181.9609375 89.390625 C185.0625 93.92212865 185.0625 93.92212865 185.0625 96.1875 C185.7225 96.1875 186.3825 96.1875 187.0625 96.1875 C187.68125 97.321875 188.3 98.45625 188.9375 99.625 C190.64779896 102.73639132 192.42258843 105.7874033 194.3046875 108.796875 C223.10069325 155.2945937 230.17030831 215.17688969 218.08666992 268.09228516 C213.62371163 286.70754027 206.9646496 304.23651566 198.0625 321.1875 C197.56492187 322.18652344 197.06734375 323.18554688 196.5546875 324.21484375 C191.98929109 333.13611354 186.38509711 341.14862728 180.47949219 349.22558594 C179.51956867 350.55465992 178.57791283 351.89708607 177.65332031 353.25097656 C176.50273752 354.92922589 175.28811731 356.563239 174.0625 358.1875 C173.4025 358.1875 172.7425 358.1875 172.0625 358.1875 C171.85496094 358.70957031 171.64742188 359.23164063 171.43359375 359.76953125 C169.46445465 363.24217257 166.83626784 365.96385272 164.125 368.875 C163.58681641 369.46861328 163.04863281 370.06222656 162.49414062 370.67382812 C158.43496308 375.06334564 158.43496308 375.06334564 155.0625 376.1875 C155.0625 376.8475 155.0625 377.5075 155.0625 378.1875 C154.4025 378.1875 153.7425 378.1875 153.0625 378.1875 C152.86269531 378.73148437 152.66289062 379.27546875 152.45703125 379.8359375 C150.48456185 383.16206237 147.68857192 385.37293086 144.75 387.8125 C144.18087891 388.30234375 143.61175781 388.7921875 143.02539062 389.296875 C139.8542045 391.96198205 137.07120537 393.90892606 133.0625 395.1875 C133.0625 395.8475 133.0625 396.5075 133.0625 397.1875 C131.50878906 398.4050293 131.50878906 398.4050293 129.328125 399.76171875 C128.53277344 400.2609082 127.73742187 400.76009766 126.91796875 401.27441406 C125.62826172 402.0667041 125.62826172 402.0667041 124.3125 402.875 C123.43722656 403.41737305 122.56195313 403.95974609 121.66015625 404.51855469 C119.91306715 405.59790479 118.16375186 406.67366071 116.41210938 407.74560547 C114.53103497 408.8999722 112.66189071 410.07377071 110.796875 411.25390625 C102.76385455 416.1999517 94.16755563 419.7230264 85.43725586 423.23193359 C83.82006246 423.88266815 82.20639269 424.54221297 80.59594727 425.20947266 C74.89607991 427.54938898 69.17735083 429.5084172 63.25 431.1875 C62.35418213 431.44168701 61.45836426 431.69587402 60.53540039 431.95776367 C54.07247211 433.74065986 47.5823523 435.23013133 41 436.5 C40.18104248 436.65919922 39.36208496 436.81839844 38.51831055 436.98242188 C-11.78736642 446.166609 -67.28991305 435.85781755 -111.1171875 409.8515625 C-113.36007114 408.52819902 -115.59025818 407.31009392 -117.9375 406.1875 C-117.9375 405.5275 -117.9375 404.8675 -117.9375 404.1875 C-118.45828125 404.11917969 -118.9790625 404.05085938 -119.515625 403.98046875 C-123.0255912 402.83123788 -125.747908 400.67106608 -128.6875 398.5 C-129.6158667 397.82324219 -129.6158667 397.82324219 -130.56298828 397.1328125 C-131.7936729 396.23402321 -133.02240303 395.33255069 -134.24902344 394.42822266 C-135.7016214 393.3608278 -137.16611886 392.30966073 -138.6328125 391.26171875 C-139.35210937 390.74222656 -140.07140625 390.22273438 -140.8125 389.6875 C-141.42867188 389.2440625 -142.04484375 388.800625 -142.6796875 388.34375 C-143.09476562 387.9621875 -143.50984375 387.580625 -143.9375 387.1875 C-143.9375 386.5275 -143.9375 385.8675 -143.9375 385.1875 C-144.7728125 384.8471875 -144.7728125 384.8471875 -145.625 384.5 C-148.57473273 382.82582737 -150.5748884 380.60917689 -152.9375 378.1875 C-153.700625 377.630625 -154.46375 377.07375 -155.25 376.5 C-155.806875 376.066875 -156.36375 375.63375 -156.9375 375.1875 C-156.9375 374.5275 -156.9375 373.8675 -156.9375 373.1875 C-157.5975 373.1875 -158.2575 373.1875 -158.9375 373.1875 C-158.9375 372.5275 -158.9375 371.8675 -158.9375 371.1875 C-159.5975 371.1875 -160.2575 371.1875 -160.9375 371.1875 C-160.9375 370.5275 -160.9375 369.8675 -160.9375 369.1875 C-161.5975 369.1875 -162.2575 369.1875 -162.9375 369.1875 C-162.9375 368.5275 -162.9375 367.8675 -162.9375 367.1875 C-163.5975 367.1875 -164.2575 367.1875 -164.9375 367.1875 C-166.54384015 365.45358049 -168.0750287 363.649409 -169.5625 361.8125 C-170.78839844 360.31589844 -170.78839844 360.31589844 -172.0390625 358.7890625 C-173.9375 356.1875 -173.9375 356.1875 -173.9375 354.1875 C-174.5975 354.1875 -175.2575 354.1875 -175.9375 354.1875 C-178.65832881 350.86522947 -180.94198657 347.20248415 -183.3125 343.625 C-184.02913818 342.54395996 -184.74577637 341.46291992 -185.48413086 340.34912109 C-207.92323678 306.11492011 -221.22894212 267.29294116 -221.9375 226.1875 C-221.95264648 225.41067871 -221.96779297 224.63385742 -221.98339844 223.83349609 C-222.73325976 178.5949111 -210.75802889 140.32930103 -188.9375 101.1875 C-188.2775 101.1875 -187.6175 101.1875 -186.9375 101.1875 C-186.9375 100.1975 -186.9375 99.2075 -186.9375 98.1875 C-186.2775 98.1875 -185.6175 98.1875 -184.9375 98.1875 C-184.6796875 97.47207031 -184.421875 96.75664063 -184.15625 96.01953125 C-182.86365235 93.01589889 -181.3097291 90.55244628 -179.4375 87.875 C-178.52484375 86.55048828 -178.52484375 86.55048828 -177.59375 85.19921875 C-177.0471875 84.53535156 -176.500625 83.87148437 -175.9375 83.1875 C-175.2775 83.1875 -174.6175 83.1875 -173.9375 83.1875 C-173.6796875 82.62546875 -173.421875 82.0634375 -173.15625 81.484375 C-171.79580223 78.92045421 -170.20961038 76.73523635 -168.4375 74.4375 C-167.8290625 73.63828125 -167.220625 72.8390625 -166.59375 72.015625 C-166.0471875 71.41234375 -165.500625 70.8090625 -164.9375 70.1875 C-164.2775 70.1875 -163.6175 70.1875 -162.9375 70.1875 C-162.9375 69.5275 -162.9375 68.8675 -162.9375 68.1875 C-162.2775 68.1875 -161.6175 68.1875 -160.9375 68.1875 C-160.9375 67.5275 -160.9375 66.8675 -160.9375 66.1875 C-160.2775 66.1875 -159.6175 66.1875 -158.9375 66.1875 C-158.9375 65.5275 -158.9375 64.8675 -158.9375 64.1875 C-158.2775 64.1875 -157.6175 64.1875 -156.9375 64.1875 C-156.9375 63.5275 -156.9375 62.8675 -156.9375 62.1875 C-156.2775 62.1875 -155.6175 62.1875 -154.9375 62.1875 C-154.9375 61.5275 -154.9375 60.8675 -154.9375 60.1875 C-154.2775 60.1875 -153.6175 60.1875 -152.9375 60.1875 C-152.6075 59.1975 -152.2775 58.2075 -151.9375 57.1875 C-149.72265625 55.14453125 -149.72265625 55.14453125 -147 53 C-146.10410156 52.28457031 -145.20820313 51.56914063 -144.28515625 50.83203125 C-141.9375 49.1875 -141.9375 49.1875 -139.9375 49.1875 C-139.9375 48.5275 -139.9375 47.8675 -139.9375 47.1875 C-138.4765625 45.8984375 -138.4765625 45.8984375 -136.5625 44.5625 C-135.93601562 44.11648437 -135.30953125 43.67046875 -134.6640625 43.2109375 C-132.9375 42.1875 -132.9375 42.1875 -130.9375 42.1875 C-130.9375 41.5275 -130.9375 40.8675 -130.9375 40.1875 C-129.05697058 38.73555635 -127.10613151 37.37385395 -125.125 36.0625 C-124.04605469 35.33804688 -122.96710938 34.61359375 -121.85546875 33.8671875 C-118.9375 32.1875 -118.9375 32.1875 -115.9375 32.1875 C-115.9375 31.5275 -115.9375 30.8675 -115.9375 30.1875 C-113.15412143 28.79581072 -110.36994568 27.40603534 -107.58203125 26.0234375 C-105.16217386 24.81579354 -102.76893271 23.56923335 -100.38671875 22.2890625 C-78.5095922 10.69294258 -54.4270679 4.15145265 -29.9375 1.1875 C-29.14851318 1.08961182 -28.35952637 0.99172363 -27.54663086 0.89086914 C-18.38985673 -0.09774145 -9.19859383 -0.0136879 0 0 Z " fill="#1D307E" transform="translate(249.9375,26.8125)"/>
<path d="M0 0 C1.43583001 -0.10836453 2.8740202 -0.18576167 4.3125 -0.25 C5.11300781 -0.29640625 5.91351563 -0.3428125 6.73828125 -0.390625 C9 0 9 0 10.6640625 1.6015625 C12.30286275 4.54373604 13.17282606 7.37606925 14.0625 10.625 C14.4028125 11.86765625 14.743125 13.1103125 15.09375 14.390625 C16.0211878 18.08438591 16.80192992 21.76473548 17.41015625 25.5234375 C18.09464708 28.39739237 19.15204435 31.0749017 20.21313477 33.82763672 C21.52358401 37.44550124 22.45967009 41.15630133 23.4375 44.875 C24.95853758 50.50164406 26.6049467 55.8942911 28.90625 61.2578125 C30.42807176 65.07323705 31.66692029 68.96995955 32.9375 72.875 C35.29488886 80.0783385 37.99367864 87.04016014 41 94 C41.63040822 95.58118782 42.25550225 97.16450576 42.875 98.75 C48.36700729 112.51310261 54.2917691 126.31996018 62 139 C82.2658096 173.88116723 82.2658096 173.88116723 82.05004883 193.43896484 C82.04376968 194.15850845 82.03749054 194.87805206 82.03102112 195.61940002 C82.0172347 197.17280386 82.00131431 198.72618995 81.98346901 200.27955246 C81.95667403 202.74378979 81.93890219 205.20793528 81.92399597 207.67227173 C81.88140253 214.67588743 81.8336826 221.67932172 81.75317383 228.68261719 C81.70448057 232.97540205 81.67560896 237.26793736 81.65942955 241.56096268 C81.64957372 243.18998906 81.63242737 244.81898922 81.60764503 246.4478569 C81.40767009 259.88940421 83.60926125 267.16416125 93.07421875 277.24609375 C99.40152794 283.44280833 107.04694741 288.19015445 115 292 C115 292.66 115 293.32 115 294 C116.07507813 294.36738281 116.07507813 294.36738281 117.171875 294.7421875 C131.71647225 301.21091722 138.45122654 317.51234966 143.9375 331.375 C146.28131309 337.51240748 148.05300684 343.47626937 149 350 C149.66 350 150.32 350 151 350 C151.33 350.99 151.66 351.98 152 353 C152.66 353.66 153.32 354.32 154 355 C152.68 355.66 151.36 356.32 150 357 C150 357.66 150 358.32 150 359 C149.34 359 148.68 359 148 359 C147.80019531 359.54398437 147.60039062 360.08796875 147.39453125 360.6484375 C145.42206185 363.97456237 142.62607192 366.18543086 139.6875 368.625 C139.11837891 369.11484375 138.54925781 369.6046875 137.96289062 370.109375 C134.7917045 372.77448205 132.00870537 374.72142606 128 376 C128 376.66 128 377.32 128 378 C126.44628906 379.2175293 126.44628906 379.2175293 124.265625 380.57421875 C123.47027344 381.0734082 122.67492187 381.57259766 121.85546875 382.08691406 C120.56576172 382.8792041 120.56576172 382.8792041 119.25 383.6875 C118.37472656 384.22987305 117.49945313 384.77224609 116.59765625 385.33105469 C114.85056715 386.41040479 113.10125186 387.48616071 111.34960938 388.55810547 C109.46853497 389.7124722 107.59939071 390.88627071 105.734375 392.06640625 C97.70135455 397.0124517 89.10505563 400.5355264 80.37475586 404.04443359 C78.75756246 404.69516815 77.14389269 405.35471297 75.53344727 406.02197266 C69.83357991 408.36188898 64.11485083 410.3209172 58.1875 412 C57.29168213 412.25418701 56.39586426 412.50837402 55.47290039 412.77026367 C49.00997211 414.55315986 42.5198523 416.04263133 35.9375 417.3125 C35.11854248 417.47169922 34.29958496 417.63089844 33.45581055 417.79492188 C-16.84986642 426.979109 -72.35241305 416.67031755 -116.1796875 390.6640625 C-118.42257114 389.34069902 -120.65275818 388.12259392 -123 387 C-123 386.34 -123 385.68 -123 385 C-123.52078125 384.93167969 -124.0415625 384.86335938 -124.578125 384.79296875 C-128.0880912 383.64373788 -130.810408 381.48356608 -133.75 379.3125 C-134.6783667 378.63574219 -134.6783667 378.63574219 -135.62548828 377.9453125 C-136.8561729 377.04652321 -138.08490303 376.14505069 -139.31152344 375.24072266 C-140.7641214 374.1733278 -142.22861886 373.12216073 -143.6953125 372.07421875 C-144.41460937 371.55472656 -145.13390625 371.03523438 -145.875 370.5 C-146.49117187 370.0565625 -147.10734375 369.613125 -147.7421875 369.15625 C-148.15726563 368.7746875 -148.57234375 368.393125 -149 368 C-149 367.34 -149 366.68 -149 366 C-149.8353125 365.6596875 -149.8353125 365.6596875 -150.6875 365.3125 C-153.63723273 363.63832737 -155.6373884 361.42167689 -158 359 C-158.763125 358.443125 -159.52625 357.88625 -160.3125 357.3125 C-160.869375 356.879375 -161.42625 356.44625 -162 356 C-162 355.34 -162 354.68 -162 354 C-162.66 353.67 -163.32 353.34 -164 353 C-162.35 352.67 -160.7 352.34 -159 352 C-158.79697266 351.01386719 -158.79697266 351.01386719 -158.58984375 350.0078125 C-154.96061502 333.96966398 -148.54541741 315.13659842 -137 303 C-136.34 303 -135.68 303 -135 303 C-134.67 302.01 -134.34 301.02 -134 300 C-129.66666667 297 -129.66666667 297 -127 297 C-127 296.34 -127 295.68 -127 295 C-125.61401367 293.90600586 -125.61401367 293.90600586 -123.66796875 292.71484375 C-122.6008667 292.0487207 -122.6008667 292.0487207 -121.51220703 291.36914062 C-120.74505371 290.89669922 -119.97790039 290.42425781 -119.1875 289.9375 C-111.40938849 285.0366244 -103.71074685 279.95402485 -97.3359375 273.25 C-96 272 -96 272 -94 272 C-93.896875 271.319375 -93.79375 270.63875 -93.6875 269.9375 C-93 267 -93 267 -91.43798828 263.81958008 C-89.69911327 259.81679414 -89.87246109 256.22235659 -90.3046875 251.94921875 C-90.42910444 250.34982403 -90.54833711 248.75001976 -90.66308594 247.14990234 C-90.72379272 246.31134705 -90.78449951 245.47279175 -90.8470459 244.60882568 C-91.27506956 237.30834075 -91.14669576 229.97754863 -91.13037109 222.66723633 C-91.12498551 219.80479692 -91.13036918 216.94251299 -91.13671875 214.08007812 C-91.14346426 199.86062789 -90.81470242 185.8418899 -88.25 171.8125 C-88.07299561 170.8325708 -87.89599121 169.8526416 -87.71362305 168.84301758 C-82.70065155 141.84623633 -73.61564928 116.6104179 -62.21630859 91.66748047 C-60.44875649 87.79107053 -58.72267646 83.89651564 -57 80 C-56.34 80 -55.68 80 -55 80 C-54.88785156 79.44828125 -54.77570313 78.8965625 -54.66015625 78.328125 C-53.88639227 75.59934789 -52.73182306 73.27227057 -51.4375 70.75 C-50.98246094 69.85796875 -50.52742188 68.9659375 -50.05859375 68.046875 C-49.70925781 67.37140625 -49.35992187 66.6959375 -49 66 C-48.34 66 -47.68 66 -47 66 C-46.896875 65.46375 -46.79375 64.9275 -46.6875 64.375 C-45.81907303 61.37497956 -44.44379704 58.7620465 -43 56 C-42.34 56 -41.68 56 -41 56 C-40.85884766 55.16662109 -40.85884766 55.16662109 -40.71484375 54.31640625 C-39.81576095 51.40298493 -38.35054557 49.40210335 -36.5625 46.9375 C-35.94503906 46.08027344 -35.32757813 45.22304687 -34.69140625 44.33984375 C-34.13324219 43.56769531 -33.57507813 42.79554687 -33 42 C-32.34 41.01 -31.68 40.02 -31 39 C-30.34 39 -29.68 39 -29 39 C-28.91621094 38.29488281 -28.83242187 37.58976562 -28.74609375 36.86328125 C-27.82525763 33.32939185 -26.23039169 31.11591788 -24.0625 28.1875 C-22.99708984 26.72376953 -22.99708984 26.72376953 -21.91015625 25.23046875 C-21.27980469 24.49441406 -20.64945313 23.75835937 -20 23 C-19.34 23 -18.68 23 -18 23 C-17.7421875 22.43796875 -17.484375 21.8759375 -17.21875 21.296875 C-15.85830223 18.73295421 -14.27211038 16.54773635 -12.5 14.25 C-11.8915625 13.45078125 -11.283125 12.6515625 -10.65625 11.828125 C-10.1096875 11.22484375 -9.563125 10.6215625 -9 10 C-8.34 10 -7.68 10 -7 10 C-6.731875 9.195625 -6.46375 8.39125 -6.1875 7.5625 C-5.795625 6.716875 -5.40375 5.87125 -5 5 C-4.01 4.67 -3.02 4.34 -2 4 C-2 3.34 -2 2.68 -2 2 C-1.34 2 -0.68 2 0 2 C0 1.34 0 0.68 0 0 Z " fill="#7B3487" transform="translate(255,46)"/>
<path d="M0 0 C2.64 0 5.28 0 8 0 C8 2.97 8 5.94 8 9 C9.9490625 9.3403125 9.9490625 9.3403125 11.9375 9.6875 C21.11465617 11.78103875 27.12163712 16.67918021 33.640625 23.3046875 C35.87733716 25.29641751 35.87733716 25.29641751 38.65234375 24.79296875 C39.42707031 24.53128906 40.20179688 24.26960938 41 24 C41.763125 23.814375 42.52625 23.62875 43.3125 23.4375 C43.869375 23.293125 44.42625 23.14875 45 23 C45.99 24.32 46.98 25.64 48 27 C46.9024777 29.99324263 46.32317108 30.84610901 43.375 32.25 C42.59125 32.4975 41.8075 32.745 41 33 C41.515625 34.051875 42.03125 35.10375 42.5625 36.1875 C44.17399322 39.47494617 44.08405408 41.50146185 43 45 C41.02014462 47.97886497 38.49969313 50.45013055 36 53 C35.25234375 53.77214844 34.5046875 54.54429687 33.734375 55.33984375 C26.2067401 62.63679306 17.57880779 67.27871765 7 68 C7 70.64 7 73.28 7 76 C4.69 76 2.38 76 0 76 C-0.495 72.04 -0.495 72.04 -1 68 C-2.2375 67.79375 -3.475 67.5875 -4.75 67.375 C-15.66652067 64.8861706 -23.76636526 59.40126869 -31 51 C-31.63421875 50.28070313 -32.2684375 49.56140625 -32.921875 48.8203125 C-37.01908542 43.83975855 -37.01908542 43.83975855 -36.9375 40.25 C-36.628125 39.5075 -36.31875 38.765 -36 38 C-35.814375 37.236875 -35.62875 36.47375 -35.4375 35.6875 C-35.293125 35.130625 -35.14875 34.57375 -35 34 C-35.66 33.54625 -36.32 33.0925 -37 32.625 C-37.66 32.08875 -38.32 31.5525 -39 31 C-39 30.34 -39 29.68 -39 29 C-39.66 29 -40.32 29 -41 29 C-40.1875 26.5625 -40.1875 26.5625 -39 24 C-36 23 -36 23 -34.17578125 23.77734375 C-32.45052083 24.8515625 -30.72526042 25.92578125 -29 27 C-29 26.34 -29 25.68 -29 25 C-28.34 25 -27.68 25 -27 25 C-26.90525391 24.13375 -26.90525391 24.13375 -26.80859375 23.25 C-24.80719557 17.68089202 -17.26640137 14.147545 -12.22265625 11.59375 C-7.94924136 9.79441741 -4.67615536 8.80171779 0 9 C0 6.03 0 3.06 0 0 Z " fill="#803382" transform="translate(247,161)"/>
<path d="M0 0 C1.38445312 0.06574219 1.38445312 0.06574219 2.796875 0.1328125 C3.76367188 0.184375 4.73046875 0.2359375 5.7265625 0.2890625 C6.685625 0.33289063 7.6446875 0.37671875 8.6328125 0.421875 C15.90260683 0.78637722 15.90260683 0.78637722 18.12979126 1.4197998 C20.883247 2.03234282 23.42830787 2.04130867 26.25 2.04345703 C27.43803223 2.04660919 28.62606445 2.04976135 29.85009766 2.05300903 C31.12933105 2.0509848 32.40856445 2.04896057 33.7265625 2.046875 C35.70148682 2.04831009 35.70148682 2.04831009 37.71630859 2.04977417 C40.50033748 2.05124671 43.28433423 2.04911083 46.06835938 2.04443359 C49.63266559 2.03873656 53.1968965 2.04201794 56.76119995 2.04800606 C60.1663268 2.05249321 63.57143351 2.04934935 66.9765625 2.046875 C68.8954126 2.04991135 68.8954126 2.04991135 70.85302734 2.05300903 C72.63507568 2.04828079 72.63507568 2.04828079 74.453125 2.04345703 C75.49807129 2.04266144 76.54301758 2.04186584 77.61962891 2.04104614 C80.04468347 1.92832662 82.03114971 1.57482481 84.3515625 0.9140625 C88.03080319 0.53047657 91.72055919 0.35883245 95.4140625 0.1640625 C96.42017578 0.09574219 97.42628906 0.02742188 98.46289062 -0.04296875 C99.91018555 -0.11837891 99.91018555 -0.11837891 101.38671875 -0.1953125 C102.267229 -0.24655273 103.14773926 -0.29779297 104.05493164 -0.35058594 C106.3515625 -0.0859375 106.3515625 -0.0859375 108.16674805 1.26879883 C109.3515625 2.9140625 109.3515625 2.9140625 109.2734375 5.34765625 C108.19239587 8.35716621 106.9165155 9.78780055 104.6015625 11.9765625 C103.88226563 12.65847656 103.16296875 13.34039062 102.421875 14.04296875 C95.92567523 19.9140625 95.92567523 19.9140625 93.3515625 19.9140625 C93.3515625 20.5740625 93.3515625 21.2340625 93.3515625 21.9140625 C91.7015625 22.5740625 90.0515625 23.2340625 88.3515625 23.9140625 C88.3515625 24.5740625 88.3515625 25.2340625 88.3515625 25.9140625 C84.8575882 28.50678735 81.07706466 30.67100983 77.3515625 32.9140625 C76.57683594 33.39746094 75.80210937 33.88085938 75.00390625 34.37890625 C64.30901269 40.76478644 52.66527062 42.60836465 40.44140625 40.1171875 C36.24808331 38.99200334 32.46417482 37.31454515 28.6015625 35.3515625 C27.91707031 35.00657715 27.23257813 34.6615918 26.52734375 34.30615234 C19.98446075 30.90220832 13.81204654 26.89882255 8.3515625 21.9140625 C8.3515625 21.2540625 8.3515625 20.5940625 8.3515625 19.9140625 C7.79726562 19.676875 7.24296875 19.4396875 6.671875 19.1953125 C3.80007983 17.60954008 1.64010598 15.63308158 -0.7734375 13.4140625 C-1.64226562 12.62 -2.51109375 11.8259375 -3.40625 11.0078125 C-4.84252172 9.66662497 -6.25889433 8.30360567 -7.6484375 6.9140625 C-7.3984375 3.8515625 -7.3984375 3.8515625 -6.6484375 0.9140625 C-4.18552191 -0.3173953 -2.7426683 -0.13249858 0 0 Z " fill="#4C1F71" transform="translate(199.6484375,344.0859375)"/>
<path d="M0 0 C3.27655508 1.40526214 5.15432686 3.02917473 7.4375 5.75 C8.3346875 6.81347656 8.3346875 6.81347656 9.25 7.8984375 C9.8275 8.59195312 10.405 9.28546875 11 10 C11.515625 10.59039062 12.03125 11.18078125 12.5625 11.7890625 C16 15.75390625 16 15.75390625 16 18 C16.56203125 18.07347656 17.1240625 18.14695312 17.703125 18.22265625 C20.83849584 19.28377665 22.40769354 21.10610491 24.75 23.4375 C56.38805822 53.03986547 101.76014711 63.86373384 143.8046875 62.9140625 C179.69417621 61.37279611 221.15990381 48.02770246 246.58789062 21.33300781 C248 20 248 20 250 20 C250 19.34 250 18.68 250 18 C250.66 18 251.32 18 252 18 C252 17.34 252 16.68 252 16 C252.66 16 253.32 16 254 16 C254 15.34 254 14.68 254 14 C254.66 14 255.32 14 256 14 C256.268125 13.42765625 256.53625 12.8553125 256.8125 12.265625 C258.04132636 9.92115366 259.42522176 7.87595062 261 5.75 C261.515625 5.04359375 262.03125 4.3371875 262.5625 3.609375 C263.2740625 2.81273437 263.2740625 2.81273437 264 2 C264.66 2 265.32 2 266 2 C266 1.34 266 0.68 266 0 C267.32 0 268.64 0 270 0 C272 3 272 3 271.953125 5.3125 C270.66714331 8.93854673 268.38131833 11.29310856 265.75 14 C265.27175781 14.50789063 264.79351562 15.01578125 264.30078125 15.5390625 C261.26029448 18.75258511 258.13327465 21.87704916 255 25 C254.03513672 25.99966797 254.03513672 25.99966797 253.05078125 27.01953125 C252.47714844 27.61121094 251.90351563 28.20289063 251.3125 28.8125 C250.44044922 29.71935547 250.44044922 29.71935547 249.55078125 30.64453125 C248 32 248 32 246 32 C246 32.66 246 33.32 246 34 C244.34204102 35.36938477 244.34204102 35.36938477 242.00390625 36.94140625 C241.1435376 37.52092041 240.28316895 38.10043457 239.39672852 38.69750977 C238.46143311 39.31295654 237.5261377 39.92840332 236.5625 40.5625 C235.13345337 41.5059729 235.13345337 41.5059729 233.67553711 42.46850586 C220.96152995 50.75388363 208.4156336 57.2468308 194 62 C192.7464215 62.48839189 191.49387672 62.97944252 190.2421875 63.47265625 C169.22241195 71.41050926 146.20857137 72.59104957 124 72 C122.76765625 71.97035156 121.5353125 71.94070313 120.265625 71.91015625 C89.21536497 70.4159536 59.48413905 58.26947151 34 41 C33.03707031 40.35675781 32.07414062 39.71351563 31.08203125 39.05078125 C26.6031988 36.00094113 22.78819282 32.8934204 19 29 C18.07832031 28.401875 17.15664062 27.80375 16.20703125 27.1875 C8.88135487 22.19069273 1.3597308 14.78523357 -3 7 C-2.92179819 3.48091869 -2.48936754 2.48936754 0 0 Z " fill="#E04E67" transform="translate(116,352)"/>
<path d="M0 0 C2.64 0 5.28 0 8 0 C8 2.97 8 5.94 8 9 C9.9490625 9.3403125 9.9490625 9.3403125 11.9375 9.6875 C21.11465617 11.78103875 27.12163712 16.67918021 33.640625 23.3046875 C35.87733716 25.29641751 35.87733716 25.29641751 38.65234375 24.79296875 C39.42707031 24.53128906 40.20179688 24.26960938 41 24 C41.763125 23.814375 42.52625 23.62875 43.3125 23.4375 C43.869375 23.293125 44.42625 23.14875 45 23 C45.99 24.32 46.98 25.64 48 27 C46.9024777 29.99324263 46.32317108 30.84610901 43.375 32.25 C42.59125 32.4975 41.8075 32.745 41 33 C41.515625 34.051875 42.03125 35.10375 42.5625 36.1875 C44.17399322 39.47494617 44.08405408 41.50146185 43 45 C41.02014462 47.97886497 38.49969313 50.45013055 36 53 C35.25234375 53.77214844 34.5046875 54.54429687 33.734375 55.33984375 C26.2067401 62.63679306 17.57880779 67.27871765 7 68 C7 70.64 7 73.28 7 76 C4.69 76 2.38 76 0 76 C-0.495 72.04 -0.495 72.04 -1 68 C-2.2375 67.79375 -3.475 67.5875 -4.75 67.375 C-15.66652067 64.8861706 -23.76636526 59.40126869 -31 51 C-31.63421875 50.28070313 -32.2684375 49.56140625 -32.921875 48.8203125 C-37.01908542 43.83975855 -37.01908542 43.83975855 -36.9375 40.25 C-36.628125 39.5075 -36.31875 38.765 -36 38 C-35.814375 37.236875 -35.62875 36.47375 -35.4375 35.6875 C-35.293125 35.130625 -35.14875 34.57375 -35 34 C-35.66 33.54625 -36.32 33.0925 -37 32.625 C-37.66 32.08875 -38.32 31.5525 -39 31 C-39 30.34 -39 29.68 -39 29 C-39.66 29 -40.32 29 -41 29 C-40.1875 26.5625 -40.1875 26.5625 -39 24 C-36 23 -36 23 -34.17578125 23.77734375 C-32.45052083 24.8515625 -30.72526042 25.92578125 -29 27 C-29 26.34 -29 25.68 -29 25 C-28.34 25 -27.68 25 -27 25 C-26.90525391 24.13375 -26.90525391 24.13375 -26.80859375 23.25 C-24.80719557 17.68089202 -17.26640137 14.147545 -12.22265625 11.59375 C-7.94924136 9.79441741 -4.67615536 8.80171779 0 9 C0 6.03 0 3.06 0 0 Z M-22 29 C-22 29.66 -22 30.32 -22 31 C-22.66 31 -23.32 31 -24 31 C-24.70226141 32.24176695 -25.38629109 33.49385599 -26.0625 34.75 C-26.63677734 35.79414063 -26.63677734 35.79414063 -27.22265625 36.859375 C-28.17660398 39.48632654 -28.05405096 40.42890374 -27 43 C-22.11520918 50.72893795 -15.6338127 57.22019659 -6.59765625 59.64453125 C0.84864244 60.66349844 8.61825873 60.37334721 16 59 C16 58.34 16 57.68 16 57 C16.86625 56.7525 17.7325 56.505 18.625 56.25 C25.69395724 53.63186769 31.6553274 48.87100474 35 42 C34.84618637 34.019787 30.50937885 29.35611648 25 24 C8.34988136 12.1306085 -8.31630235 13.91881833 -22 29 Z " fill="#E14E66" transform="translate(247,161)"/>
<path d="M0 0 C10.16599629 0.94129595 18.79308445 4.04087864 27.75 8.875 C28.56082031 9.29652344 29.37164062 9.71804687 30.20703125 10.15234375 C34.9652915 12.68234554 38.99328403 15.39395563 43 19 C42.9375 20.75 42.9375 20.75 42 23 C34.24275578 28.32359897 26.24627245 28.78121091 17 28 C10.48707935 26.71589224 6.81634762 24.33792808 2.9375 18.9375 C0.3892405 14.95022337 -1.14306934 11.77030475 -1.125 7 C-1.12757813 6.319375 -1.13015625 5.63875 -1.1328125 4.9375 C-1 3 -1 3 0 0 Z " fill="#E54E62" transform="translate(187,245)"/>
<path d="M0 0 C1.82545622 5.47636867 1.78487866 10.88853992 -0.5625 16.125 C-3.96980445 22.21032619 -9.14254036 26.38068876 -15.7734375 28.53125 C-23.66729236 30.19311418 -31.63736655 29.26469275 -39 26 C-41.625 23.8125 -41.625 23.8125 -43 22 C-42.505 20.515 -42.505 20.515 -42 19 C-39.4375 17.8125 -39.4375 17.8125 -37 17 C-37 16.34 -37 15.68 -37 15 C-28.42860451 10.17255573 -19.93238651 5.68532158 -10.625 2.4375 C-9.90642822 2.18661621 -9.18785645 1.93573242 -8.44750977 1.67724609 C-5.51314992 0.69431129 -3.11486115 0 0 0 Z " fill="#E74E60" transform="translate(314,244)"/>
<path d="M0 0 C6.33944863 4.10835586 11.25066156 10.31418891 15 16.8125 C15.55334315 19.9859466 15.29424164 21.27550901 13.75 24.09375 C9.05832016 30.04212979 4.45830982 34.60504109 -3 36.625 C-3.66 36.686875 -4.32 36.74875 -5 36.8125 C-5 37.1425 -5 37.4725 -5 37.8125 C-6.98 37.8125 -8.96 37.8125 -11 37.8125 C-11 36.4925 -11 35.1725 -11 33.8125 C-13.64 34.1425 -16.28 34.4725 -19 34.8125 C-19.495 33.3275 -19.495 33.3275 -20 31.8125 C-18.62714844 31.66554688 -18.62714844 31.66554688 -17.2265625 31.515625 C-16.03804687 31.36609375 -14.84953125 31.2165625 -13.625 31.0625 C-12.44164062 30.92328125 -11.25828125 30.7840625 -10.0390625 30.640625 C-6.91679808 30.14012059 -6.91679808 30.14012059 -5.6484375 27.859375 C-5.43445313 27.18390625 -5.22046875 26.5084375 -5 25.8125 C-4.67 25.1525 -4.34 24.4925 -4 23.8125 C-3.77532169 22.27581135 -3.59203195 20.73281946 -3.4375 19.1875 C-3.35371094 18.37023437 -3.26992188 17.55296875 -3.18359375 16.7109375 C-3.09271484 15.77121094 -3.09271484 15.77121094 -3 14.8125 C-3.66 14.8125 -4.32 14.8125 -5 14.8125 C-5.4125 14.090625 -5.825 13.36875 -6.25 12.625 C-8.35819674 9.23682667 -10.49004011 6.70787834 -14 4.8125 C-16.87355807 4.17122574 -19.68013972 3.75696694 -22.609375 3.46484375 C-25 2.8125 -25 2.8125 -26.328125 0.75390625 C-26.66070312 -0.20708984 -26.66070312 -0.20708984 -27 -1.1875 C-19.02883686 -3.84455438 -7.6168999 -3.65523644 0 0 Z " fill="#7C3486" transform="translate(267,181.1875)"/>
<path d="M0 0 C3.40569591 2.14706916 5.80960782 4.10417103 7 8 C7.52720041 12.66948933 7.75658076 15.59768884 4.8125 19.375 C1.20971323 22.73760099 -1.10908031 23.758606 -5.9375 24.375 C-10.67051999 23.79544653 -13.69128762 21.30871238 -17 18 C-18.25019637 13.10486492 -18.54349609 9.1956914 -16.4375 4.5625 C-11.4726399 -0.65696831 -6.82540757 -2.08280478 0 0 Z " fill="#E64E62" transform="translate(256,188)"/>
<path d="M0 0 C0.433125 0.598125 0.86625 1.19625 1.3125 1.8125 C2.84693841 3.9573741 2.84693841 3.9573741 4.4765625 5.2578125 C6.57637142 7.65913245 7.16436882 10.01176291 8.0625 13.0625 C8.38347656 14.12597656 8.70445312 15.18945312 9.03515625 16.28515625 C11.42641177 25.49197408 12.27761312 33.91618581 12.1953125 43.4453125 C12.1924826 44.69633759 12.18965271 45.94736267 12.18673706 47.23629761 C12.17750168 50.52751564 12.15960118 53.81852961 12.1373291 57.10968018 C12.11669861 60.48194917 12.10769895 63.8542483 12.09765625 67.2265625 C12.07570393 73.8177867 12.04230798 80.4088767 12 87 C11.01 87.495 11.01 87.495 10 88 C9.99413376 87.30446014 9.98826752 86.60892029 9.98222351 85.89230347 C9.92384566 79.27419084 9.85152036 72.65638602 9.76428509 66.03858757 C9.71992901 62.63789197 9.68060144 59.23730666 9.65356445 55.83642578 C9.61966915 51.90889798 9.56733679 47.98196085 9.51171875 44.0546875 C9.50532883 42.8582663 9.4989389 41.66184509 9.49235535 40.4291687 C9.30563084 29.48514589 7.85621007 18.63839442 2.8125 8.8125 C0 3.26277372 0 3.26277372 0 0 Z " fill="#2D2A77" transform="translate(327,202)"/>
<path d="M0 0 C3.3 0 6.6 0 10 0 C6.89900127 1.55049937 4.94983699 2.36616427 1.69140625 3.03515625 C0.45789429 3.28894043 0.45789429 3.28894043 -0.80053711 3.54785156 C-1.67073486 3.71768555 -2.54093262 3.88751953 -3.4375 4.0625 C-4.34056885 4.2387793 -5.2436377 4.41505859 -6.17407227 4.59667969 C-27.15923874 8.56456569 -51.13324417 8.9522485 -72 4 C-72 3.67 -72 3.34 -72 3 C-45.24874212 3.78110498 -45.24874212 3.78110498 -32 6 C-32 5.34 -32 4.68 -32 4 C-31.37432129 3.97494385 -30.74864258 3.9498877 -30.10400391 3.92407227 C-27.27745381 3.80824727 -24.45124831 3.68546015 -21.625 3.5625 C-20.14773438 3.50352539 -20.14773438 3.50352539 -18.640625 3.44335938 C-17.22910156 3.38051758 -17.22910156 3.38051758 -15.7890625 3.31640625 C-14.48509521 3.26141968 -14.48509521 3.26141968 -13.15478516 3.20532227 C-10.9516738 3.12598456 -10.9516738 3.12598456 -9 2 C-7.45976004 1.93049459 -5.91665012 1.91547643 -4.375 1.9375 C-3.14910156 1.95103516 -3.14910156 1.95103516 -1.8984375 1.96484375 C-1.27195312 1.97644531 -0.64546875 1.98804688 0 2 C0 1.34 0 0.68 0 0 Z " fill="#D34F72" transform="translate(288,417)"/>
<path d="M0 0 C4.61591942 0.53260609 9.17366783 1.19312038 13.75 2 C34.40204688 5.45921785 56.01021213 4.95929581 76.4765625 0.62109375 C79.74273451 0.04534946 82.69382087 -0.11698788 86 0 C85.67 0.66 85.34 1.32 85 2 C83.15820312 2.48657227 83.15820312 2.48657227 80.78125 2.81640625 C79.93175781 2.94080078 79.08226562 3.06519531 78.20703125 3.19335938 C77.31371094 3.31517578 76.42039062 3.43699219 75.5 3.5625 C73.73907972 3.81024852 71.97862965 4.06137058 70.21875 4.31640625 C69.0421582 4.47798218 69.0421582 4.47798218 67.84179688 4.64282227 C65.98971049 4.82377169 65.98971049 4.82377169 65 6 C61.99746789 6.13914829 59.01988839 6.21338545 56.015625 6.23828125 C55.09021912 6.246353 54.16481323 6.25442474 53.21136475 6.26274109 C51.23402798 6.27662357 49.25666683 6.28732693 47.27929688 6.29516602 C45.29549939 6.30651753 43.31172812 6.32669011 41.328125 6.35668945 C27.06563082 6.57231331 13.90850079 5.18219449 0 2 C0 1.34 0 0.68 0 0 Z " fill="#D25073" transform="translate(208,411)"/>
<path d="M0 0 C0.33 0 0.66 0 1 0 C0.99777939 0.69918549 0.99555878 1.39837097 0.99327087 2.1187439 C0.97301128 8.79426259 0.95789755 15.46977237 0.94818783 22.14531517 C0.94302777 25.57508051 0.93605969 29.0048199 0.92456055 32.43457031 C0.91150771 36.40169184 0.90546262 40.36879431 0.90234375 44.3359375 C0.90076263 45.62087097 0.89918152 46.90580444 0.89755249 48.22967529 C0.91591505 56.68723954 1.26193118 65.03801803 2.07641602 73.45556641 C1.98240878 77.81594044 1.03692687 80.16930724 -1 84 C-1.99 84.495 -1.99 84.495 -3 85 C-2.6687915 84.03658691 -2.33758301 83.07317383 -1.99633789 82.08056641 C-0.71732364 77.57541767 -0.8616171 73.35576866 -1.05859375 68.7109375 C-1.11605439 66.87638366 -1.17350857 65.04182961 -1.23095703 63.20727539 C-1.2649762 62.25418488 -1.29899536 61.30109436 -1.33404541 60.31912231 C-1.84112623 45.88855957 -2.16991227 31.49464774 -1.625 17.0625 C-1.58173584 15.89315918 -1.53847168 14.72381836 -1.49389648 13.51904297 C-1.29042452 8.89607613 -0.99760857 4.52796086 0 0 Z " fill="#332B79" transform="translate(164,229)"/>
<path d="M0 0 C0.495 0.99 0.495 0.99 1 2 C0.34 2.99 -0.32 3.98 -1 5 C-1.66 5 -2.32 5 -3 5 C-3.226875 5.886875 -3.45375 6.77375 -3.6875 7.6875 C-5.19037089 11.48045988 -6.99478968 13.28798093 -10 16 C-12.6335052 18.43092788 -14.18232362 20.90321801 -16 24 C-17.00800158 25.61226059 -18.02985532 27.21591102 -19.0625 28.8125 C-19.82240234 29.99779297 -19.82240234 29.99779297 -20.59765625 31.20703125 C-21.06042969 31.79871094 -21.52320313 32.39039063 -22 33 C-22.66 33 -23.32 33 -24 33 C-24.2475 33.53625 -24.495 34.0725 -24.75 34.625 C-26.29814886 37.56648283 -28.13010957 40.25359843 -30 43 C-30.66 43.99 -31.32 44.98 -32 46 C-32.66 45.67 -33.32 45.34 -34 45 C-33.51789063 44.31292969 -33.03578125 43.62585938 -32.5390625 42.91796875 C-31.90742188 42.01691406 -31.27578125 41.11585937 -30.625 40.1875 C-29.99851563 39.29417969 -29.37203125 38.40085938 -28.7265625 37.48046875 C-27.46449761 35.66732122 -26.22541192 33.83811789 -25 32 C-24.34 32 -23.68 32 -23 32 C-22.91621094 31.29488281 -22.83242187 30.58976562 -22.74609375 29.86328125 C-21.82525763 26.32939185 -20.23039169 24.11591788 -18.0625 21.1875 C-17.35222656 20.21167969 -16.64195312 19.23585938 -15.91015625 18.23046875 C-15.27980469 17.49441406 -14.64945313 16.75835937 -14 16 C-13.34 16 -12.68 16 -12 16 C-11.7421875 15.43796875 -11.484375 14.8759375 -11.21875 14.296875 C-9.85830223 11.73295421 -8.27211038 9.54773635 -6.5 7.25 C-5.8915625 6.45078125 -5.283125 5.6515625 -4.65625 4.828125 C-4.1096875 4.22484375 -3.563125 3.6215625 -3 3 C-2.34 3 -1.68 3 -1 3 C-0.67 2.01 -0.34 1.02 0 0 Z " fill="#66378C" transform="translate(249,53)"/>
<path d="M0 0 C1.33333333 2.66666667 2.66666667 5.33333333 4 8 C4.66 8 5.32 8 6 8 C6 6.35 6 4.7 6 3 C6.53625 3.680625 7.0725 4.36125 7.625 5.0625 C9.94790138 7.93556223 12.36356826 10.69794378 14.828125 13.44921875 C16 15 16 15 16 17 C15.01 17.33 14.02 17.66 13 18 C13 16.68 13 15.36 13 14 C11.68 14.33 10.36 14.66 9 15 C8.67 13.68 8.34 12.36 8 11 C7.04497842 12.72476911 7.04497842 12.72476911 7 15 C9.35426499 17.77122275 9.35426499 17.77122275 12 20 C11.67 20.66 11.34 21.32 11 22 C1.11920029 12.64539673 1.11920029 12.64539673 -2 7 C-1.9347945 4.00054678 -1.31470154 2.62940307 0 0 Z " fill="#D94F6E" transform="translate(212,197)"/>
<path d="M0 0 C0 0.66 0 1.32 0 2 C-0.99 2.495 -0.99 2.495 -2 3 C-3.12706706 5.11015954 -3.12706706 5.11015954 -4.125 7.5625 C-4.47820312 8.38878906 -4.83140625 9.21507812 -5.1953125 10.06640625 C-5.59363281 11.02353516 -5.59363281 11.02353516 -6 12 C-4.02 12 -2.04 12 0 12 C0 12.66 0 13.32 0 14 C2.79256219 13.88638398 5.58344118 13.7596411 8.375 13.625 C9.1690625 13.5940625 9.963125 13.563125 10.78125 13.53125 C15.36667375 13.48183579 15.36667375 13.48183579 19 11 C21.125 11.375 21.125 11.375 23 12 C15.79538874 16.60294608 8.57623018 17.05769499 0.19921875 15.46875 C-4.4988509 14.18809101 -7.94970974 13.02083717 -11 9 C-10.67 8.01 -10.34 7.02 -10 6 C-7.4375 4.8125 -7.4375 4.8125 -5 4 C-5 3.34 -5 2.68 -5 2 C-2 0 -2 0 0 0 Z " fill="#D35073" transform="translate(282,257)"/>
<path d="M0 0 C0.33 0 0.66 0 1 0 C1.22822613 3.95829688 0.55050009 6.67851541 -1 10.3125 C-1.37125 11.19550781 -1.7425 12.07851562 -2.125 12.98828125 C-2.41375 13.65214844 -2.7025 14.31601563 -3 15 C-3.66 15 -4.32 15 -5 15 C-4.87625 16.5159375 -4.87625 16.5159375 -4.75 18.0625 C-5.00397223 22.06256257 -5.92419828 23.86440222 -8.0546875 27.171875 C-9.12992942 29.25126847 -9.36463725 30.86476337 -9.5625 33.1875 C-10.01239113 37.10797982 -10.52871503 38.13330944 -13 41 C-13.71162443 42.64797236 -14.39031953 44.31165408 -15 46 C-16.33490498 42.32684425 -15.64414187 40.11620369 -14.375 36.484375 C-14.00109131 35.40462402 -13.62718262 34.32487305 -13.24194336 33.21240234 C-12.83210205 32.06980957 -12.42226074 30.9272168 -12 29.75 C-11.59080322 28.58807129 -11.18160645 27.42614258 -10.76000977 26.22900391 C-7.57058237 17.29612756 -4.03225418 8.58312625 0 0 Z " fill="#6A378C" transform="translate(190,144)"/>
<path d="M0 0 C1.2757489 -0.0049926 1.2757489 -0.0049926 2.57727051 -0.01008606 C4.37263448 -0.0151409 6.16800782 -0.01749483 7.96337891 -0.01733398 C10.70881586 -0.01952333 13.45385269 -0.03770198 16.19921875 -0.05664062 C17.94531113 -0.05957427 19.69140541 -0.06155926 21.4375 -0.0625 C22.66732605 -0.07327827 22.66732605 -0.07327827 23.92199707 -0.08427429 C28.14898343 -0.06733196 30.34953683 0.23336216 34.21875 2.16796875 C18.70875 2.49796875 3.19875 2.82796875 -12.78125 3.16796875 C-12.78125 2.50796875 -12.78125 1.84796875 -12.78125 1.16796875 C-8.53175741 -0.02287967 -4.38398504 0.00595036 0 0 Z " fill="#525A8A" transform="translate(239.78125,26.83203125)"/>
<path d="M0 0 C0.87822019 2.45901654 1.19223228 3.56061193 0.125 6 C-0.24625 6.66 -0.6175 7.32 -1 8 C-1.165 8.66 -1.33 9.32 -1.5 10 C-2.04982269 12.19929074 -2.93244227 14.00722558 -4 16 C-4.66 16 -5.32 16 -6 16 C-6.12117188 16.58007812 -6.24234375 17.16015625 -6.3671875 17.7578125 C-7.84173706 24.63148197 -9.72064056 30.73940471 -13 37 C-14.05861152 33.80770113 -13.97107886 32.1229464 -12.70703125 29.0234375 C-12.40829102 28.27473389 -12.10955078 27.52603027 -11.80175781 26.75463867 C-11.47530273 25.96935791 -11.14884766 25.18407715 -10.8125 24.375 C-10.48733398 23.56973877 -10.16216797 22.76447754 -9.82714844 21.93481445 C-9.18222676 20.33938882 -8.53308022 18.74566347 -7.87939453 17.15380859 C-6.80070882 14.51189706 -5.77707053 11.84982794 -4.75 9.1875 C-3.44117232 5.92107229 -1.95963879 2.93945818 0 0 Z " fill="#69378C" transform="translate(111,359)"/>
<path d="M0 0 C2.475 0.495 2.475 0.495 5 1 C5 3.64 5 6.28 5 9 C7.31 9 9.62 9 12 9 C12 6.36 12 3.72 12 1 C13.98 0.67 15.96 0.34 18 0 C17.34 0.66 16.68 1.32 16 2 C15.32348793 4.19704511 15.32348793 4.19704511 14.875 6.625 C14.62363281 7.85089844 14.62363281 7.85089844 14.3671875 9.1015625 C14.24601562 9.72804687 14.12484375 10.35453125 14 11 C6.23214286 11.66964286 6.23214286 11.66964286 2.5 8.875 C0 6 0 6 -0.375 2.6875 C-0.25125 1.800625 -0.1275 0.91375 0 0 Z " fill="#983877" transform="translate(242,228)"/>
<path d="M0 0 C1.875 0.1875 1.875 0.1875 4 1 C5.25 3.5625 5.25 3.5625 6 6 C5.34 6 4.68 6 4 6 C4 6.66 4 7.32 4 8 C2.88625 7.5359375 2.88625 7.5359375 1.75 7.0625 C-0.50692176 6.1905075 -2.6450153 5.52332993 -5 5 C-6.485 7.475 -6.485 7.475 -8 10 C-7.34 10 -6.68 10 -6 10 C-5.67 10.99 -5.34 11.98 -5 13 C-6.65 12.67 -8.3 12.34 -10 12 C-9.67 9.69 -9.34 7.38 -9 5 C-8.34 5 -7.68 5 -7 5 C-7 4.34 -7 3.68 -7 3 C-6.030625 2.87625 -5.06125 2.7525 -4.0625 2.625 C-2.5465625 2.315625 -2.5465625 2.315625 -1 2 C-0.67 1.34 -0.34 0.68 0 0 Z " fill="#83337E" transform="translate(214,180)"/>
<path d="M0 0 C4.455 0.99 4.455 0.99 9 2 C9 2.66 9 3.32 9 4 C10.98 4 12.96 4 15 4 C14.67 5.32 14.34 6.64 14 8 C13.34 8 12.68 8 12 8 C12 7.34 12 6.68 12 6 C11.01 6.33 10.02 6.66 9 7 C9 8.32 9 9.64 9 11 C8.01 10.67 7.02 10.34 6 10 C5.67 8.35 5.34 6.7 5 5 C4.34 5 3.68 5 3 5 C2.67 5.66 2.34 6.32 2 7 C0 5 0 5 -0.125 2.375 C-0.08375 1.59125 -0.0425 0.8075 0 0 Z " fill="#E74E60" transform="translate(209,186)"/>
<path d="M0 0 C15.07686898 0.45789009 30.01264821 1.27519862 45 3 C45 3.33 45 3.66 45 4 C13.86154797 4.28972221 13.86154797 4.28972221 0 1 C0 0.67 0 0.34 0 0 Z " fill="#C64A73" transform="translate(216,420)"/>
<path d="M0 0 C0.78632813 0.16371094 1.57265625 0.32742187 2.3828125 0.49609375 C6.90846849 1.12655771 11.31329568 1.10715524 15.875 1.0625 C16.75414062 1.05798828 17.63328125 1.05347656 18.5390625 1.04882812 C20.69273803 1.03712337 22.84637817 1.01919069 25 1 C21.98045155 2.58776994 19.66170873 3.32396688 16.25 3.625 C15.05117187 3.73714844 15.05117187 3.73714844 13.828125 3.8515625 C13.22484375 3.90054688 12.6215625 3.94953125 12 4 C11.67 4.99 11.34 5.98 11 7 C10.34 7.66 9.68 8.32 9 9 C6.8359375 8.9765625 6.8359375 8.9765625 4.375 8.625 C3.14910156 8.45871094 3.14910156 8.45871094 1.8984375 8.2890625 C0.95871094 8.14597656 0.95871094 8.14597656 0 8 C0 7.67 0 7.34 0 7 C2.31 6.34 4.62 5.68 7 5 C4.64046906 2.64046906 3.22104383 2.50858587 0 2 C0 1.34 0 0.68 0 0 Z " fill="#DA516F" transform="translate(237,219)"/>
<path d="M0 0 C1.2065625 0.0309375 1.2065625 0.0309375 2.4375 0.0625 C1.6875 4.8125 1.6875 4.8125 -0.5625 7.0625 C-1.5525 7.0625 -2.5425 7.0625 -3.5625 7.0625 C-3.5625 7.7225 -3.5625 8.3825 -3.5625 9.0625 C-4.2225 9.0625 -4.8825 9.0625 -5.5625 9.0625 C-5.8925 10.0525 -6.2225 11.0425 -6.5625 12.0625 C-8.2125 12.0625 -9.8625 12.0625 -11.5625 12.0625 C-11.2325 11.4025 -10.9025 10.7425 -10.5625 10.0625 C-9.5725 10.0625 -8.5825 10.0625 -7.5625 10.0625 C-7.5625 8.4125 -7.5625 6.7625 -7.5625 5.0625 C-6.9025 5.0625 -6.2425 5.0625 -5.5625 5.0625 C-5.253125 4.423125 -4.94375 3.78375 -4.625 3.125 C-3.05351796 0.07447605 -3.05351796 0.07447605 0 0 Z " fill="#E74D60" transform="translate(384.5625,355.9375)"/>
<path d="M0 0 C0.36625971 4.51720311 0.36625971 4.51720311 -1.375 6.8125 C-3 8 -3 8 -5 8 C-5 8.66 -5 9.32 -5 10 C-5.66 10 -6.32 10 -7 10 C-7.66 11.65 -8.32 13.3 -9 15 C-10.65 15 -12.3 15 -14 15 C-13.1875 12.5625 -13.1875 12.5625 -12 10 C-11.01 9.67 -10.02 9.34 -9 9 C-9 8.34 -9 7.68 -9 7 C-8.01 7 -7.02 7 -6 7 C-6 6.34 -6 5.68 -6 5 C-1.35714286 0 -1.35714286 0 0 0 Z " fill="#E84E60" transform="translate(368,373)"/>
<path d="M0 0 C0.33 0 0.66 0 1 0 C1.38063221 2.3260857 1.71269945 4.66055264 2 7 C1.67 7.33 1.34 7.66 1 8 C0.79224439 9.66204487 0.63281745 11.33029491 0.5 13 C0.11111111 17.88888889 0.11111111 17.88888889 -1 19 C-1.23659614 22.42501072 -1.39673972 25.84280568 -1.51757812 29.2734375 C-1.60910491 31.18686533 -1.79739852 33.09512839 -2 35 C-2.99 35.495 -2.99 35.495 -4 36 C-4.84781451 23.73024003 -2.31147886 11.99233349 0 0 Z " fill="#66378C" transform="translate(169,206)"/>
<path d="M0 0 C0.33 0.66 0.66 1.32 1 2 C0.01 2 -0.98 2 -2 2 C-1.67 2.99 -1.34 3.98 -1 5 C-1.99 5 -2.98 5 -4 5 C-6.14853436 5.53195637 -6.14853436 5.53195637 -8 7 C-9.29231642 10.04199472 -9.29231642 10.04199472 -10 13 C-10.33 12.34 -10.66 11.68 -11 11 C-11.78375 11.515625 -12.5675 12.03125 -13.375 12.5625 C-14.24125 13.036875 -15.1075 13.51125 -16 14 C-16.66 13.67 -17.32 13.34 -18 13 C-18 12.34 -18 11.68 -18 11 C-16.11947058 9.54805635 -14.16863151 8.18635395 -12.1875 6.875 C-11.10855469 6.15054688 -10.02960938 5.42609375 -8.91796875 4.6796875 C-6 3 -6 3 -3 3 C-3 2.34 -3 1.68 -3 1 C-2.01 0.67 -1.02 0.34 0 0 Z " fill="#46528D" transform="translate(137,56)"/>
<path d="M0 0 C0.33 0 0.66 0 1 0 C1.37624274 4.7030342 1.42340877 8.1043276 -0.625 12.4375 C-3.40546384 15.43747415 -5.00869958 16.21739208 -9 17 C-11.33212027 17.07522969 -13.6685311 17.09325876 -16 17 C-16.33 17.66 -16.66 18.32 -17 19 C-17.66 18.34 -18.32 17.68 -19 17 C-18.67 16.34 -18.34 15.68 -18 15 C-18.61875 14.9175 -19.2375 14.835 -19.875 14.75 C-22 14 -22 14 -23.1328125 11.953125 C-23.41898438 11.30859375 -23.70515625 10.6640625 -24 10 C-23.52691406 10.37253906 -23.05382812 10.74507812 -22.56640625 11.12890625 C-18.81298981 13.81409891 -16.01697999 15.44863033 -11.3125 15.125 C-6.95506476 14.35736892 -4.77555049 12.46943811 -2 9 C-1.67 8.67 -1.34 8.34 -1 8 C-0.76924918 6.65252916 -0.58846937 5.29622435 -0.4375 3.9375 C-0.293125 2.638125 -0.14875 1.33875 0 0 Z " fill="#893073" transform="translate(263,196)"/>
<path d="M0 0 C0.99 0.33 1.98 0.66 3 1 C-0.80411834 4.91939465 -4.81576108 8.49102731 -9 12 C-9.66 11.67 -10.32 11.34 -11 11 C-10.67 9.02 -10.34 7.04 -10 5 C-9.34 5.33 -8.68 5.66 -8 6 C-7.34 4.68 -6.68 3.36 -6 2 C-5.01 2.33 -4.02 2.66 -3 3 C-2.67 2.34 -2.34 1.68 -2 1 C-1.34 1.33 -0.68 1.66 0 2 C0 1.34 0 0.68 0 0 Z " fill="#854D8F" transform="translate(397,408)"/>
<path d="M0 0 C1.32 0 2.64 0 4 0 C6 3 6 3 5.625 5.1875 C5.41875 5.785625 5.2125 6.38375 5 7 C5 6.01 5 5.02 5 4 C2.56282742 4.27034634 2.56282742 4.27034634 0 5 C-1.12831894 6.69247841 -2.24359183 8.39438678 -3.3125 10.125 C-5.42473111 12.47192346 -6.92036816 12.66706683 -10 13 C-9.59007812 12.45730469 -9.18015625 11.91460937 -8.7578125 11.35546875 C-8.21898437 10.64003906 -7.68015625 9.92460937 -7.125 9.1875 C-6.59132813 8.47980469 -6.05765625 7.77210938 -5.5078125 7.04296875 C-4.29185219 5.39543703 -3.13583859 3.70375789 -2 2 C-1.34 2 -0.68 2 0 2 C0 1.34 0 0.68 0 0 Z " fill="#D14F70" transform="translate(382,352)"/>
<path d="M0 0 C6.74729265 2.04463414 11.35854429 6.44236978 14.75 12.5 C15.51005 13.99493278 16.2608105 15.49464327 17 17 C17.61875 18.11375 18.2375 19.2275 18.875 20.375 C20 23 20 23 19 26 C18.46632813 24.94941406 17.93265625 23.89882813 17.3828125 22.81640625 C13.09056109 14.63980847 9.14756042 8.340585 1.87109375 2.50390625 C1.25363281 2.00761719 0.63617188 1.51132812 0 1 C0 0.67 0 0.34 0 0 Z " fill="#332974" transform="translate(375,342)"/>
<path d="M0 0 C7.17222695 2.66397001 11.28763538 6.08930211 16 12 C15.67 12.66 15.34 13.32 15 14 C13.35 12.68 11.7 11.36 10 10 C8.35 10.66 6.7 11.32 5 12 C5 11.01 5 10.02 5 9 C4.55623039 4.67324631 3.26349249 2.84239669 0 0 Z " fill="#89337A" transform="translate(262,180)"/>
<path d="M0 0 C-0.33 0.66 -0.66 1.32 -1 2 C-1.99 2 -2.98 2 -4 2 C-4.226875 2.61875 -4.45375 3.2375 -4.6875 3.875 C-6.37929835 6.61410209 -7.99244161 7.05024472 -11 8 C-11 7.01 -11 6.02 -11 5 C-11.391875 5.495 -11.78375 5.99 -12.1875 6.5 C-14.55091715 8.45593143 -16.01435003 8.24207973 -19 8 C-17.35318883 4.70637766 -13.84002713 3.80348377 -10.625 2.3125 C-9.93921875 1.97927734 -9.2534375 1.64605469 -8.546875 1.30273438 C-3.36523991 -1.12174664 -3.36523991 -1.12174664 0 0 Z " fill="#566198" transform="translate(165,44)"/>
<path d="M0 0 C2.3125 2.0625 2.3125 2.0625 4 4 C3.67 4.99 3.34 5.98 3 7 C-0.16023369 6.29772585 -3.11280405 5.48261414 -6 4 C-6.8125 1.875 -6.8125 1.875 -7 0 C-4.23382717 -1.38308641 -2.92591209 -0.90563946 0 0 Z " fill="#E84D5F" transform="translate(152,386)"/>
<path d="M0 0 C1.65 0 3.3 0 5 0 C5 0.66 5 1.32 5 2 C8.14621682 1.86177801 11.29185566 1.71314916 14.4375 1.5625 C15.33533203 1.52318359 16.23316406 1.48386719 17.15820312 1.44335938 C18.01220703 1.40146484 18.86621094 1.35957031 19.74609375 1.31640625 C20.53685303 1.27974854 21.3276123 1.24309082 22.14233398 1.20532227 C24.01401441 1.19436743 24.01401441 1.19436743 25 0 C26.66617115 -0.04063832 28.33388095 -0.042721 30 0 C24.56613263 4.80688268 17.90491585 4.26885245 10.9921875 4.234375 C6.84680299 3.90967125 3.75981552 2.73529947 0 1 C0 0.67 0 0.34 0 0 Z " fill="#CE4F75" transform="translate(196,269)"/>
<path d="M0 0 C2.9375 2 2.9375 2 5 4 C-3.03571429 3.0625 -3.03571429 3.0625 -7 2 C-7.02725341 3.7290774 -7.04650987 5.45828176 -7.0625 7.1875 C-7.07410156 8.15042969 -7.08570313 9.11335937 -7.09765625 10.10546875 C-7.00486622 12.85576513 -6.62111685 15.32479591 -6 18 C-7.48828125 16.94921875 -7.48828125 16.94921875 -9 15 C-9.29296875 11.64453125 -9.29296875 11.64453125 -9.1875 7.8125 C-9.16042969 6.54019531 -9.13335937 5.26789063 -9.10546875 3.95703125 C-9.07066406 2.98121094 -9.03585938 2.00539062 -9 1 C-5.89951072 -0.55024464 -3.42105782 -0.28992015 0 0 Z " fill="#8D3173" transform="translate(194,243)"/>
<path d="M0 0 C3.465 1.485 3.465 1.485 7 3 C3.25 4.125 3.25 4.125 1 3 C1 4.65 1 6.3 1 8 C1.804375 8.12375 2.60875 8.2475 3.4375 8.375 C4.283125 8.58125 5.12875 8.7875 6 9 C6.33 9.66 6.66 10.32 7 11 C1.82069003 9.75696561 -1.70166639 8.14512215 -6 5 C-5.195625 4.360625 -4.39125 3.72125 -3.5625 3.0625 C-1.7249496 1.59396498 -1.7249496 1.59396498 0 0 Z " fill="#DA4F6C" transform="translate(230,215)"/>
<path d="M0 0 C5.64336328 0.3826009 8.89915226 0.77853909 13 5 C15.76580927 8.68774569 15.35092006 12.57840723 15 17 C13.48046875 18.74609375 13.48046875 18.74609375 12 20 C12.10699219 19.33613281 12.21398437 18.67226562 12.32421875 17.98828125 C13.116756 12.36803925 13.116756 12.36803925 11.8125 6.9375 C9.79315336 4.77888807 8.92742514 4.17741971 6 4 C3.81296615 4.37907282 3.81296615 4.37907282 2 5 C2.66 4.01 3.32 3.02 4 2 C2.68 1.34 1.36 0.68 0 0 Z " fill="#D55073" transform="translate(248,187)"/>
<path d="M0 0 C0 1.32 0 2.64 0 4 C-1.32 4 -2.64 4 -4 4 C-4 4.66 -4 5.32 -4 6 C-6.875 6.125 -6.875 6.125 -10 6 C-10.66 5.34 -11.32 4.68 -12 4 C-3.69811321 -1.8490566 -3.69811321 -1.8490566 0 0 Z " fill="#E94E5E" transform="translate(320,405)"/>
<path d="M0 0 C1.12642186 3.37926557 0.96344705 3.72928278 -0.43359375 6.79296875 C-0.75263672 7.50517578 -1.07167969 8.21738281 -1.40039062 8.95117188 C-1.74263672 9.68916016 -2.08488281 10.42714844 -2.4375 11.1875 C-2.77587891 11.93708984 -3.11425781 12.68667969 -3.46289062 13.45898438 C-4.2999411 15.30992698 -5.14885404 17.15549666 -6 19 C-6.99 19 -7.98 19 -9 19 C-9 18.34 -9 17.68 -9 17 C-8.34 17 -7.68 17 -7 17 C-6.87625 16.360625 -6.7525 15.72125 -6.625 15.0625 C-5.8020178 11.02988724 -4.90114025 7.01576093 -4 3 C-2.68 2.67 -1.36 2.34 0 2 C0 1.34 0 0.68 0 0 Z " fill="#556092" transform="translate(458,322)"/>
<path d="M0 0 C0.33 0.66 0.66 1.32 1 2 C-2.79756421 8.4731208 -6.68576408 12.91337523 -13 17 C-13.66 16.67 -14.32 16.34 -15 16 C-14.01 15.67 -13.02 15.34 -12 15 C-11.31396656 13.67652716 -10.65035814 12.34136367 -10 11 C-8.71232966 9.60234116 -7.37501388 8.24932391 -6 6.9375 C-3.62557202 4.66346144 -1.83652048 2.75478071 0 0 Z " fill="#933575" transform="translate(385,361)"/>
<path d="M0 0 C0.99 0.66 1.98 1.32 3 2 C2.67 3.32 2.34 4.64 2 6 C2.969375 6.7425 3.93875 7.485 4.9375 8.25 C7.02387361 9.97309915 7.90112479 10.73868694 8.875 13.3125 C8.936875 14.1478125 8.936875 14.1478125 9 15 C9.66 15 10.32 15 11 15 C10.67 15.66 10.34 16.32 10 17 C6.27187986 15.75729329 5.28218936 14.18950306 2.875 11.125 C2.17117187 10.24070312 1.46734375 9.35640625 0.7421875 8.4453125 C-1 6 -1 6 -2 3 C-1.34 3 -0.68 3 0 3 C0 2.01 0 1.02 0 0 Z " fill="#85307A" transform="translate(125,354)"/>
<path d="M0 0 C-5.40926644 2.85772567 -10.79156836 5.09387806 -16.58203125 7.0703125 C-19.20165115 7.97616345 -19.20165115 7.97616345 -22 10 C-24.1875 9.625 -24.1875 9.625 -26 9 C-3.57152451 -1.78576226 -3.57152451 -1.78576226 0 0 Z " fill="#D14E74" transform="translate(308,247)"/>
<path d="M0 0 C1.70884005 1.62339805 3.37446717 3.29319053 5 5 C5 5.66 5 6.32 5 7 C6.65 7 8.3 7 10 7 C10 7.66 10 8.32 10 9 C10.99 9 11.98 9 13 9 C13 8.34 13 7.68 13 7 C16.465 6.505 16.465 6.505 20 6 C17.07976718 9.42084417 14.63739411 9.77236239 10.2890625 10.140625 C5.78654604 9.86401989 3.04671086 7.04671086 0 4 C0 2.68 0 1.36 0 0 Z " fill="#CF4D72" transform="translate(239,202)"/>
<path d="M0 0 C4.13621084 3.3810038 7.81316569 6.66590534 11 11 C10.01 11.495 10.01 11.495 9 12 C9 11.34 9 10.68 9 10 C8.01 10.33 7.02 10.66 6 11 C5.67 10.01 5.34 9.02 5 8 C2.98491642 7.26676204 2.98491642 7.26676204 1 7 C0.67 4.69 0.34 2.38 0 0 Z " fill="#4E5A91" transform="translate(409,91)"/>
<path d="M0 0 C1.98 0.99 1.98 0.99 4 2 C4 2.66 4 3.32 4 4 C4.78375 4.268125 5.5675 4.53625 6.375 4.8125 C9 6 9 6 11 9 C9.02 9.99 9.02 9.99 7 11 C5.68 9.68 4.36 8.36 3 7 C3.33 6.34 3.66 5.68 4 5 C2.68 4.34 1.36 3.68 0 3 C0 2.01 0 1.02 0 0 Z " fill="#E94D5E" transform="translate(136,375)"/>
<path d="M0 0 C0.66 0 1.32 0 2 0 C3.98 4.95 5.96 9.9 8 15 C8.33 15 8.66 15 9 15 C9 17.31 9 19.62 9 22 C3.64305417 16.64305417 2.00299026 7.13185925 0 0 Z " fill="#2C2A7A" transform="translate(285,112)"/>
<path d="M0 0 C0 0.99 0 1.98 0 3 C-5.87883349 5.61281488 -11.70731728 5.18328202 -18 5 C-18.33 4.34 -18.66 3.68 -19 3 C-17.41058594 2.80083984 -17.41058594 2.80083984 -15.7890625 2.59765625 C-14.40101721 2.41946125 -13.01299769 2.2410654 -11.625 2.0625 C-10.92632812 1.97548828 -10.22765625 1.88847656 -9.5078125 1.79882812 C-6.2726175 1.37887493 -3.13085652 0 0 0 Z " fill="#8B3075" transform="translate(304,270)"/>
<path d="M0 0 C-0.33 0.99 -0.66 1.98 -1 3 C-3.31 3 -5.62 3 -8 3 C-8 3.66 -8 4.32 -8 5 C-11.96 5 -15.92 5 -20 5 C-20.33 4.34 -20.66 3.68 -21 3 C-19.79601562 2.86722656 -18.59203125 2.73445313 -17.3515625 2.59765625 C-15.77601915 2.4194698 -14.20049953 2.2410735 -12.625 2.0625 C-11.8309375 1.97548828 -11.036875 1.88847656 -10.21875 1.79882812 C-6.75512291 1.4025657 -3.33221947 0 0 0 Z " fill="#8B3175" transform="translate(226,270)"/>
<path d="M0 0 C2.64 0.33 5.28 0.66 8 1 C5.35261084 2.4606285 4.10551666 3 1 3 C1.14204741 4.58367747 1.28880153 6.16693318 1.4375 7.75 C1.51871094 8.63171875 1.59992188 9.5134375 1.68359375 10.421875 C1.96238465 12.69350452 2.38790577 14.79851823 3 17 C0.35186989 14.58214207 -0.87900351 12.76512528 -1.1328125 9.0625 C-1.13023437 8.381875 -1.12765625 7.70125 -1.125 7 C-1.12757813 6.319375 -1.13015625 5.63875 -1.1328125 4.9375 C-1 3 -1 3 0 0 Z " fill="#CA4D73" transform="translate(187,245)"/>
<path d="M0 0 C0.33 0 0.66 0 1 0 C1.25 3.3125 1.25 3.3125 1 7 C-0.875 8.625 -0.875 8.625 -3 10 C-4.26847685 12.58498512 -4.26847685 12.58498512 -5 15 C-6.65 14.67 -8.3 14.34 -10 14 C-8.88625 12.948125 -8.88625 12.948125 -7.75 11.875 C-4.28682569 8.25440867 -1.5921543 4.77646289 0 0 Z " fill="#973574" transform="translate(314,256)"/>
<path d="M0 0 C2.91517292 1.07401108 4.77810176 1.77810176 7 4 C2.25 3.125 2.25 3.125 0 2 C0.66 3.98 1.32 5.96 2 8 C2.99 7.67 3.98 7.34 5 7 C5 8.98 5 10.96 5 13 C2.95880212 11.38405168 0.95927063 9.7143618 -1 8 C-1 7.34 -1 6.68 -1 6 C-1.66 6 -2.32 6 -3 6 C-1.125 1.125 -1.125 1.125 0 0 Z " fill="#D25175" transform="translate(209,184)"/>
<path d="M0 0 C5.39795989 1.15058556 10.70987333 2.42421759 16 4 C16 4.66 16 5.32 16 6 C9.85845775 5.41509121 3.99320151 4.45933748 -2 3 C-1.34 2.01 -0.68 1.02 0 0 Z " fill="#895992" transform="translate(199,457)"/>
<path d="M0 0 C8.38136293 1.4539099 16.69087069 3.18048263 25 5 C25 5.33 25 5.66 25 6 C23.18757948 6.02687279 21.37504767 6.04633715 19.5625 6.0625 C18.55316406 6.07410156 17.54382813 6.08570313 16.50390625 6.09765625 C14 6 14 6 13 5 C10.49008429 4.50521375 7.97117314 4.10033389 5.4453125 3.6953125 C2.7881274 2.93975508 1.73476754 2.1024004 0 0 Z " fill="#892F71" transform="translate(201,417)"/>
<path d="M0 0 C0 0.66 0 1.32 0 2 C-0.66 2 -1.32 2 -2 2 C-1.67 4.31 -1.34 6.62 -1 9 C-2.32 9.33 -3.64 9.66 -5 10 C-5.66 8.68 -6.32 7.36 -7 6 C-6.34 6 -5.68 6 -5 6 C-5.33 5.01 -5.66 4.02 -6 3 C-2.25 0 -2.25 0 0 0 Z " fill="#E94D5D" transform="translate(288,188)"/>
<path d="M0 0 C0.66 0.33 1.32 0.66 2 1 C-0.34452834 3.34452834 -1.89724948 3.6926254 -5.0625 4.5625 C-8.3121143 5.2711258 -8.3121143 5.2711258 -11 7 C-12.51928038 7.07179964 -14.04167482 7.08392007 -15.5625 7.0625 C-16.38878906 7.05347656 -17.21507812 7.04445313 -18.06640625 7.03515625 C-18.70449219 7.02355469 -19.34257812 7.01195312 -20 7 C-16.92519537 5.32151842 -13.95191331 4.36498204 -10.5625 3.5 C-7.68061985 2.76249521 -5.01829111 2.00776782 -2.27734375 0.84375 C-1.15005859 0.42609375 -1.15005859 0.42609375 0 0 Z " fill="#8F3375" transform="translate(314,412)"/>
<path d="M0 0 C0.66 0 1.32 0 2 0 C2 0.66 2 1.32 2 2 C1.34 2 0.68 2 0 2 C-0.433125 2.928125 -0.433125 2.928125 -0.875 3.875 C-2 6 -2 6 -4 8 C-4.99 8 -5.98 8 -7 8 C-7 8.66 -7 9.32 -7 10 C-8.96147874 11.38938077 -10.96166576 12.7260411 -13 14 C-13.66 13.67 -14.32 13.34 -15 13 C-14.08476562 12.22914063 -13.16953125 11.45828125 -12.2265625 10.6640625 C-11.02600156 9.6510892 -9.82548292 8.63806576 -8.625 7.625 C-7.72007812 6.86316406 -7.72007812 6.86316406 -6.796875 6.0859375 C-6.21679688 5.59609375 -5.63671875 5.10625 -5.0390625 4.6015625 C-4.50490723 4.15119629 -3.97075195 3.70083008 -3.42041016 3.23681641 C-2.23658322 2.20600388 -1.10995961 1.10995961 0 0 Z " fill="#67388B" transform="translate(159,318)"/>
<path d="M0 0 C3 1 3 1 4.640625 4.08984375 C5.18842218 5.36759397 5.72445938 6.65043572 6.25 7.9375 C6.53101563 8.58396484 6.81203125 9.23042969 7.1015625 9.89648438 C7.80373244 11.57022115 8.40920546 13.28378346 9 15 C8.67 15.66 8.34 16.32 8 17 C5.46447088 15.73223544 5.15080425 14.53176935 4 12 C3.67 11.34 3.34 10.68 3 10 C3.33 9.01 3.66 8.02 4 7 C3.34 7 2.68 7 2 7 C0.5393715 4.35261084 0 3.10551666 0 0 Z " fill="#636D9E" transform="translate(449,148)"/>
<path d="M0 0 C0.66 0 1.32 0 2 0 C1.38367054 4.95998472 -0.79835629 8.93671966 -3.0625 13.3125 C-3.62807617 14.42334961 -3.62807617 14.42334961 -4.20507812 15.55664062 C-5.13128157 17.37387522 -6.06490629 19.18732404 -7 21 C-8 18 -8 18 -6.6015625 14.78515625 C-5.95258938 13.53907466 -5.29329121 12.29832859 -4.625 11.0625 C-1.71285704 5.76308913 -1.71285704 5.76308913 0 0 Z " fill="#2E2A78" transform="translate(196,126)"/>
<path d="M0 0 C1.65102315 4.95306944 1.63299924 10.10100227 0 15 C-0.33 15.66 -0.66 16.32 -1 17 C-2.10370043 13.6888987 -1.92673641 11.75251051 -1.5625 8.3125 C-1.46066406 7.31863281 -1.35882813 6.32476562 -1.25390625 5.30078125 C-1.17011719 4.54152344 -1.08632813 3.78226563 -1 3 C-2.65 2.67 -4.3 2.34 -6 2 C-3 0 -3 0 0 0 Z " fill="#C94E77" transform="translate(314,244)"/>
<path d="M0 0 C0.33 4.29 0.66 8.58 1 13 C-0.32 13.33 -1.64 13.66 -3 14 C-2.79375 13.154375 -2.5875 12.30875 -2.375 11.4375 C-1.94156988 7.46439054 -2.7237237 4.75375382 -4 1 C-2 0 -2 0 0 0 Z " fill="#943472" transform="translate(292,193)"/>
<path d="M0 0 C1.14926266 0.95421808 2.29430541 1.91352045 3.4375 2.875 C4.07558594 3.40867187 4.71367187 3.94234375 5.37109375 4.4921875 C7 6 7 6 8 8 C5.75 8.75 5.75 8.75 3 9 C0.625 7.375 0.625 7.375 -1 5 C-0.75 2.25 -0.75 2.25 0 0 Z " fill="#48548F" transform="translate(401,83)"/>
<path d="M0 0 C1.98 0 3.96 0 6 0 C6 0.66 6 1.32 6 2 C4.68 2 3.36 2 2 2 C0.21030974 4.42672567 0.21030974 4.42672567 -1 7 C-0.34 7 0.32 7 1 7 C1.33 7.99 1.66 8.98 2 10 C0.35 9.67 -1.3 9.34 -3 9 C-2.67 6.69 -2.34 4.38 -2 2 C-1.34 2 -0.68 2 0 2 C0 1.34 0 0.68 0 0 Z " fill="#8D3274" transform="translate(207,183)"/>
<path d="M0 0 C0.66 0.33 1.32 0.66 2 1 C1.01 2.485 1.01 2.485 0 4 C-0.66 4 -1.32 4 -2 4 C-2 4.66 -2 5.32 -2 6 C-2.66 6 -3.32 6 -4 6 C-4.2475 6.78375 -4.495 7.5675 -4.75 8.375 C-6.15389099 11.32317108 -7.00675737 11.9024777 -10 13 C-9.67 11.68 -9.34 10.36 -9 9 C-8.34 9 -7.68 9 -7 9 C-6.6596875 8.1646875 -6.6596875 8.1646875 -6.3125 7.3125 C-4.64103234 4.36753316 -2.44723648 2.31843456 0 0 Z " fill="#903274" transform="translate(232,183)"/>
<path d="M0 0 C7.8408377 -0.45235602 7.8408377 -0.45235602 11.5625 1 C13.87460278 4.21683865 13.25501172 7.11107127 13 11 C10.12086007 8.12086007 9.27219267 4.81657802 8 1 C5.36 1 2.72 1 0 1 C0 0.67 0 0.34 0 0 Z " fill="#2D2B78" transform="translate(256,45)"/>
<path d="M0 0 C0.33 1.32 0.66 2.64 1 4 C-0.28627711 5.17260611 -1.57919783 6.3379283 -2.875 7.5 C-3.59429687 8.1496875 -4.31359375 8.799375 -5.0546875 9.46875 C-7 11 -7 11 -9 11 C-9 10.34 -9 9.68 -9 9 C-8.34 9 -7.68 9 -7 9 C-6.6596875 8.1646875 -6.6596875 8.1646875 -6.3125 7.3125 C-4.64103234 4.36753316 -2.44723648 2.31843456 0 0 Z " fill="#302A79" transform="translate(160,314)"/>
<path d="M0 0 C1.35814777 4.0744433 -0.05254238 6.81468116 -1.4375 10.6875 C-1.68048828 11.38939453 -1.92347656 12.09128906 -2.17382812 12.81445312 C-2.7744944 14.54578532 -3.38619719 16.27328137 -4 18 C-4.33 18 -4.66 18 -5 18 C-4.56699236 11.18012971 -3.09212176 6.08356979 0 0 Z " fill="#2E2A79" transform="translate(179,168)"/>
<path d="M0 0 C0.66 1.32 1.32 2.64 2 4 C-0.3125 6.5 -0.3125 6.5 -3 9 C-3.99 9 -4.98 9 -6 9 C-5 7 -4 5 -3 3 C-2.34 3 -1.68 3 -1 3 C-0.67 2.01 -0.34 1.02 0 0 Z " fill="#45528B" transform="translate(77,107)"/>
<path d="M0 0 C-1.78809697 1.17213045 -3.58059125 2.33755526 -5.375 3.5 C-6.37273437 4.1496875 -7.37046875 4.799375 -8.3984375 5.46875 C-11 7 -11 7 -13 7 C-13 6.34 -13 5.68 -13 5 C-12.34 5 -11.68 5 -11 5 C-10.67 4.01 -10.34 3.02 -10 2 C-9.34 2.33 -8.68 2.66 -8 3 C-8 2.34 -8 1.68 -8 1 C-4.85571151 -0.9090323 -3.47925125 -1.04523725 0 0 Z " fill="#9870A0" transform="translate(383,424)"/>
<path d="M0 0 C0.350625 0.4125 0.70125 0.825 1.0625 1.25 C3.78344094 3.70762407 6.78439652 5.24051885 10 7 C8.02 7.99 8.02 7.99 6 9 C3.03 6.69 0.06 4.38 -3 2 C-2.01 1.34 -1.02 0.68 0 0 Z " fill="#93649C" transform="translate(116,417)"/>
<path d="M0 0 C0.66 0.33 1.32 0.66 2 1 C1 2.9375 1 2.9375 -1 5 C-3.69924572 5.66549451 -6.20631637 5.81680763 -9 6 C-9 6.66 -9 7.32 -9 8 C-10.32 7.67 -11.64 7.34 -13 7 C-10.88002166 5.80266012 -8.75486324 4.61701287 -6.625 3.4375 C-6.02171875 3.09525391 -5.4184375 2.75300781 -4.796875 2.40039062 C-3.23021759 1.53872905 -1.61709138 0.76281817 0 0 Z " fill="#903272" transform="translate(339,400)"/>
<path d="M0 0 C0.66 0.33 1.32 0.66 2 1 C1.67 1.66 1.34 2.32 1 3 C0.34 3 -0.32 3 -1 3 C-1 3.66 -1 4.32 -1 5 C-3.75 7.1875 -3.75 7.1875 -7 9 C-8.32 8.67 -9.64 8.34 -11 8 C-7.37 5.36 -3.74 2.72 0 0 Z " fill="#8E3474" transform="translate(357,388)"/>
<path d="M0 0 C0.33 0 0.66 0 1 0 C1.14695312 1.17755859 1.14695312 1.17755859 1.296875 2.37890625 C2.21520784 8.83098609 3.31816364 13.59997334 7 19 C5.1875 18.9375 5.1875 18.9375 3 18 C-0.54997154 12.1679039 -0.32633017 6.68372526 0 0 Z " fill="#633587" transform="translate(335,298)"/>
<path d="M0 0 C0.33 0.99 0.66 1.98 1 3 C1.99 3.33 2.98 3.66 4 4 C5.48882438 8.07467725 6.26270217 11.66541415 6 16 C1.96190932 11.38503922 0 6.07147123 0 0 Z " fill="#2F2B78" transform="translate(294,134)"/>
<path d="M0 0 C0.33 0.99 0.66 1.98 1 3 C-0.4375 5.6875 -0.4375 5.6875 -2 8 C-3.32 7.67 -4.64 7.34 -6 7 C-6 5.68 -6 4.36 -6 3 C-4.35 3 -2.7 3 -1 3 C-0.67 2.01 -0.34 1.02 0 0 Z " fill="#E94D5C" transform="translate(285,205)"/>
<path d="M0 0 C0.66 0.33 1.32 0.66 2 1 C1.67 1.66 1.34 2.32 1 3 C1.09723451 4.99021521 1.09723451 4.99021521 1.4375 7.125 C1.623125 8.40375 1.80875 9.6825 2 11 C1.401875 10.236875 0.80375 9.47375 0.1875 8.6875 C-1.46959332 6.6516425 -3.10297674 4.8021721 -5 3 C-2.625 1.4375 -2.625 1.4375 0 0 Z " fill="#8B3379" transform="translate(261,185)"/>
<path d="M0 0 C-1.8253125 0.6496875 -1.8253125 0.6496875 -3.6875 1.3125 C-6.32198944 2.28359047 -8.35870936 3.22826959 -10.75 4.75 C-13 6 -13 6 -15.140625 5.578125 C-15.75421875 5.38734375 -16.3678125 5.1965625 -17 5 C-15.58671871 4.18162558 -14.16921654 3.37053781 -12.75 2.5625 C-11.56664062 1.88380859 -11.56664062 1.88380859 -10.359375 1.19140625 C-6.51541709 -0.74966521 -4.14944008 -1.3337486 0 0 Z " fill="#D35174" transform="translate(246,171)"/>
<path d="M0 0 C2.78211944 0.37596209 4.5879284 0.67318459 6.8125 2.4375 C8 4 8 4 8 6 C8.99 6 9.98 6 11 6 C10.67 6.66 10.34 7.32 10 8 C9.01 7.67 8.02 7.34 7 7 C7 6.34 7 5.68 7 5 C6.401875 4.87625 5.80375 4.7525 5.1875 4.625 C3 4 3 4 0 2 C0 1.34 0 0.68 0 0 Z " fill="#94679D" transform="translate(125,426)"/>
<path d="M0 0 C2.96175123 0.61277612 4.38058783 1.25372522 7 3 C5.73392393 3.53229326 4.46189588 4.05044544 3.1875 4.5625 C2.47980469 4.85253906 1.77210938 5.14257812 1.04296875 5.44140625 C-1 6 -1 6 -4 5 C-3.01 4.67 -2.02 4.34 -1 4 C-0.26676204 1.98491642 -0.26676204 1.98491642 0 0 Z " fill="#863077" transform="translate(308,401)"/>
<path d="M0 0 C1.41687119 4.25061356 0.19320039 6.71851625 -1 11 C-2.65 10.67 -4.3 10.34 -6 10 C-6.33 9.01 -6.66 8.02 -7 7 C-4.92446352 6.4465236 -3.15634036 6 -1 6 C-0.67 4.02 -0.34 2.04 0 0 Z " fill="#2A2D75" transform="translate(97,389)"/>
<path d="M0 0 C4.97173583 1.55366745 9.18561608 4.49754 13 8 C13.33 8.99 13.66 9.98 14 11 C9.96407129 9.63079505 7.32473622 7.80419512 4.1875 4.9375 C3.39730469 4.22464844 2.60710937 3.51179688 1.79296875 2.77734375 C1.20128906 2.19082031 0.60960937 1.60429687 0 1 C0 0.67 0 0.34 0 0 Z " fill="#913271" transform="translate(138,373)"/>
<path d="M0 0 C0.556875 0.309375 1.11375 0.61875 1.6875 0.9375 C4.12540433 2.05761821 6.36224186 2.56037364 9 3 C8.67 3.99 8.34 4.98 8 6 C7.01 6.33 6.02 6.66 5 7 C2.8125 5.6875 2.8125 5.6875 1 4 C1 3.34 1 2.68 1 2 C0.34 1.67 -0.32 1.34 -1 1 C-0.67 0.67 -0.34 0.34 0 0 Z " fill="#70528D" transform="translate(92,398)"/>
<path d="M0 0 C2.0625 0.4375 2.0625 0.4375 4 1 C3.01 1.495 3.01 1.495 2 2 C1.31270746 4.11846285 1.31270746 4.11846285 0.875 6.5625 C0.62363281 7.80193359 0.62363281 7.80193359 0.3671875 9.06640625 C0.24601562 9.70449219 0.12484375 10.34257812 0 11 C-2.64 11 -5.28 11 -8 11 C-8 10.67 -8 10.34 -8 10 C-5.69 10 -3.38 10 -1 10 C-1.01160156 9.36191406 -1.02320313 8.72382813 -1.03515625 8.06640625 C-1.04417969 7.24011719 -1.05320313 6.41382813 -1.0625 5.5625 C-1.07410156 4.73878906 -1.08570313 3.91507813 -1.09765625 3.06640625 C-1 1 -1 1 0 0 Z " fill="#883076" transform="translate(256,228)"/>
<path d="M0 0 C0.66 0.99 1.32 1.98 2 3 C1.67 3.66 1.34 4.32 1 5 C-0.32796291 5.35412344 -1.66216607 5.68521554 -3 6 C-3.99 6.66 -4.98 7.32 -6 8 C-6 6.35 -6 4.7 -6 3 C-5.01 3 -4.02 3 -3 3 C-3 2.34 -3 1.68 -3 1 C-2.01 0.67 -1.02 0.34 0 0 Z " fill="#1A2B73" transform="translate(141,55)"/>
<path d="M0 0 C0.88751953 0.39832031 0.88751953 0.39832031 1.79296875 0.8046875 C5.8349177 2.61136615 9.8699437 4.40126853 14 6 C14 6.33 14 6.66 14 7 C8.7094723 7.66131596 5.84303382 6.04553852 1.5390625 3.2890625 C1.03117188 2.86367187 0.52328125 2.43828125 0 2 C0 1.34 0 0.68 0 0 Z " fill="#943474" transform="translate(226,221)"/>
<path d="M0 0 C2 1 2 1 2.8515625 3.06640625 C3.10679687 3.89011719 3.36203125 4.71382812 3.625 5.5625 C3.88539063 6.38878906 4.14578125 7.21507812 4.4140625 8.06640625 C4.60742188 8.70449219 4.80078125 9.34257812 5 10 C4.01 10.33 3.02 10.66 2 11 C0.19769832 7.17010894 -0.19622241 4.21878192 0 0 Z " fill="#6A358A" transform="translate(314,181)"/>
<path d="M0 0 C1.00000429 4.00001715 0.80688405 6.05523353 0 10 C-1.65 10 -3.3 10 -5 10 C-3.35 6.7 -1.7 3.4 0 0 Z " fill="#565F94" transform="translate(59,132)"/>
<path d="M0 0 C0.33 0.66 0.66 1.32 1 2 C1.66 2.33 2.32 2.66 3 3 C2.1875 4.9375 2.1875 4.9375 1 7 C0.01 7.33 -0.98 7.66 -2 8 C-2.66 7.34 -3.32 6.68 -4 6 C-2.68 4.02 -1.36 2.04 0 0 Z " fill="#3B4688" transform="translate(70,116)"/>
<path d="M0 0 C0.68359375 1.703125 0.68359375 1.703125 1 4 C-0.21484375 6.359375 -0.21484375 6.359375 -1.9375 8.75 C-2.50339844 9.54921875 -3.06929687 10.3484375 -3.65234375 11.171875 C-4.09707031 11.77515625 -4.54179687 12.3784375 -5 13 C-6 10 -6 10 -5.22265625 8.17578125 C-4.1484375 6.45052083 -3.07421875 4.72526042 -2 3 C-1.34 3 -0.68 3 0 3 C0 2.01 0 1.02 0 0 Z " fill="#68368C" transform="translate(214,99)"/>
<path d="M0 0 C1.32 0.66 2.64 1.32 4 2 C3.67 2.66 3.34 3.32 3 4 C1.68 3.67 0.36 3.34 -1 3 C-0.67 5.31 -0.34 7.62 0 10 C-1.5625 8.8125 -1.5625 8.8125 -3 7 C-2.75546876 3.65807308 -2.39456443 2.39456443 0 0 Z " fill="#CE5176" transform="translate(116,352)"/>
<path d="M0 0 C1.32 0 2.64 0 4 0 C3.39009109 3.55780196 2.4216319 6.6828589 1 10 C-1.56687367 6.1496895 -0.83288724 4.41430237 0 0 Z " fill="#545D95" transform="translate(459,311)"/>
<path d="M0 0 C4.8274799 1.41292095 8.7162359 3.42974154 13 6 C9.98968256 6.93423645 9.13349732 7.04449911 6 6 C4.5 4.625 4.5 4.625 3 3 C2.443125 2.443125 1.88625 1.88625 1.3125 1.3125 C0.879375 0.879375 0.44625 0.44625 0 0 Z " fill="#D65173" transform="translate(260,171)"/>
<path d="M0 0 C0.33 1.32 0.66 2.64 1 4 C-2.28976808 5.09658936 -3.71303767 4.79953138 -7 4 C-6.34 3.67 -5.68 3.34 -5 3 C-5 2.34 -5 1.68 -5 1 C-2 0 -2 0 0 0 Z " fill="#36427E" transform="translate(170,41)"/>
<path d="M0 0 C0.66 0.33 1.32 0.66 2 1 C-1.33562767 5.51290803 -3.33289301 7.68206814 -9 9 C-6 6 -3 3 0 0 Z " fill="#D35072" transform="translate(364,372)"/>
<path d="M0 0 C1.98 0 3.96 0 6 0 C6 0.66 6 1.32 6 2 C3.69 3.32 1.38 4.64 -1 6 C-0.67 4.02 -0.34 2.04 0 0 Z " fill="#88327B" transform="translate(269,210)"/>
<path d="M0 0 C0.66 0.33 1.32 0.66 2 1 C1.34 2.32 0.68 3.64 0 5 C-0.99 5 -1.98 5 -3 5 C-3 5.66 -3 6.32 -3 7 C-4.65 7.66 -6.3 8.32 -8 9 C-6.90101298 5.70303895 -6.05402613 4.95329411 -3.4375 2.8125 C-2.79683594 2.28269531 -2.15617187 1.75289063 -1.49609375 1.20703125 C-0.75552734 0.60955078 -0.75552734 0.60955078 0 0 Z " fill="#6F79A5" transform="translate(105,78)"/>
<path d="M0 0 C1.32 0.33 2.64 0.66 4 1 C3.19185349 2.33597652 2.37836819 3.668725 1.5625 5 C1.11003906 5.7425 0.65757812 6.485 0.19140625 7.25 C-0.20175781 7.8275 -0.59492188 8.405 -1 9 C-1.33 9 -1.66 9 -2 9 C-2.20140476 5.37471432 -1.85776765 3.13498292 0 0 Z " fill="#565E97" transform="translate(434,364)"/>
<path d="M0 0 C0.99 0.66 1.98 1.32 3 2 C1.21475351 3.19713017 -0.5784028 4.38247279 -2.375 5.5625 C-3.87160156 6.55443359 -3.87160156 6.55443359 -5.3984375 7.56640625 C-6.25695312 8.03949219 -7.11546875 8.51257813 -8 9 C-8.66 8.67 -9.32 8.34 -10 8 C-8.87926138 7.16094435 -7.75325453 6.32892169 -6.625 5.5 C-5.99851563 5.0359375 -5.37203125 4.571875 -4.7265625 4.09375 C-3 3 -3 3 -1 3 C-0.67 2.01 -0.34 1.02 0 0 Z " fill="#2D2877" transform="translate(142,329)"/>
<path d="M0 0 C0.33 0 0.66 0 1 0 C1.22151549 1.79008467 1.42682213 3.58218162 1.625 5.375 C1.74101562 6.37273437 1.85703125 7.37046875 1.9765625 8.3984375 C1.98429687 9.25695312 1.99203125 10.11546875 2 11 C1.34 11.66 0.68 12.32 0 13 C-0.99 12.01 -1.98 11.02 -3 10 C-2.67 9.34 -2.34 8.68 -2 8 C-1.34 8.33 -0.68 8.66 0 9 C0 6.03 0 3.06 0 0 Z " fill="#57649F" transform="translate(468,199)"/>
<path d="M0 0 C1.32 0.66 2.64 1.32 4 2 C4 3.32 4 4.64 4 6 C2.35 6 0.7 6 -1 6 C-1.33 5.01 -1.66 4.02 -2 3 C-1.34 2.01 -0.68 1.02 0 0 Z " fill="#EA4D5B" transform="translate(277,183)"/>
<path d="M0 0 C0 2.31 0 4.62 0 7 C-1.32 6.67 -2.64 6.34 -4 6 C-3.625 3.5625 -3.625 3.5625 -3 1 C-1 0 -1 0 0 0 Z " fill="#EA4E5D" transform="translate(226,181)"/>
<path d="M0 0 C0.66 0.33 1.32 0.66 2 1 C1.34 2.32 0.68 3.64 0 5 C-2.64 4.67 -5.28 4.34 -8 4 C-5.31143836 2.20762558 -3.0466145 1.01553817 0 0 Z " fill="#893277" transform="translate(324,408)"/>
<path d="M0 0 C0.66 0.33 1.32 0.66 2 1 C1.65120368 4.25543229 0.97866739 5.01873107 -1.5625 7.25 C-2.7690625 8.11625 -2.7690625 8.11625 -4 9 C-4 8.34 -4 7.68 -4 7 C-4.66 6.67 -5.32 6.34 -6 6 C-4.68 6 -3.36 6 -2 6 C-2 5.01 -2 4.02 -2 3 C-1.34 3 -0.68 3 0 3 C0 2.01 0 1.02 0 0 Z " fill="#656BA0" transform="translate(414,390)"/>
<path d="M0 0 C0.33 1.32 0.66 2.64 1 4 C0.34 4 -0.32 4 -1 4 C-1.33 4.99 -1.66 5.98 -2 7 C-2.33 6.34 -2.66 5.68 -3 5 C-3.66 5 -4.32 5 -5 5 C-5 3.68 -5 2.36 -5 1 C-4.01 1 -3.02 1 -2 1 C-2 1.66 -2 2.32 -2 3 C-1.34 3 -0.68 3 0 3 C0 2.01 0 1.02 0 0 Z " fill="#485492" transform="translate(423,381)"/>
<path d="M0 0 C1.98 0.99 1.98 0.99 4 2 C3.67 3.65 3.34 5.3 3 7 C2.34 7 1.68 7 1 7 C0.67 4.69 0.34 2.38 0 0 Z " fill="#313D82" transform="translate(56,348)"/>
<path d="M0 0 C1.32 0.66 2.64 1.32 4 2 C3.01 3.98 2.02 5.96 1 8 C-1 6 -1 6 -1.1875 3.4375 C-1 1 -1 1 0 0 Z " fill="#454F8B" transform="translate(444,346)"/>
<path d="M0 0 C1.33333333 0.66666667 2.66666667 1.33333333 4 2 C4.70125 2.28875 5.4025 2.5775 6.125 2.875 C8.42031559 4.25218936 9.02079402 5.55198504 10 8 C5.56983933 6.60766379 3.08449737 4.43701135 0 1 C0 0.67 0 0.34 0 0 Z " fill="#903373" transform="translate(225,209)"/>
<path d="M0 0 C1.64936913 0.78427352 3.29441127 1.57765259 4.9375 2.375 C5.85402344 2.81585938 6.77054688 3.25671875 7.71484375 3.7109375 C10 5 10 5 11 7 C6.4923533 6.46968862 3.58045212 4.74778884 0 2 C0 1.34 0 0.68 0 0 Z " fill="#D15073" transform="translate(158,389)"/>
<path d="M0 0 C3.875 1.875 3.875 1.875 5 3 C5.04080783 4.99958364 5.04254356 7.00045254 5 9 C3.35 9.33 1.7 9.66 0 10 C0.515625 9.5875 1.03125 9.175 1.5625 8.75 C3.24773916 7.11709874 3.24773916 7.11709874 2.8125 5 C1.97340108 2.74262618 1.97340108 2.74262618 0 0 Z " fill="#8E3375" transform="translate(226,260)"/>
<path d="M0 0 C1.67542976 0.28604898 3.34385343 0.61781233 5 1 C0.25 4.875 0.25 4.875 -2 6 C-1.125 1.125 -1.125 1.125 0 0 Z " fill="#DA516A" transform="translate(347,391)"/>
<path d="M0 0 C1.98 0.99 1.98 0.99 4 2 C3.34 4.31 2.68 6.62 2 9 C0.14223235 5.86501708 -0.20140476 3.62528568 0 0 Z " fill="#1E2A73" transform="translate(34,289)"/>
<path d="M0 0 C1.67542976 0.28604898 3.34385343 0.61781233 5 1 C5 1.66 5 2.32 5 3 C6.32 3.33 7.64 3.66 9 4 C7.02 4.33 5.04 4.66 3 5 C3 4.01 3 3.02 3 2 C1.68 1.67 0.36 1.34 -1 1 C-0.67 0.67 -0.34 0.34 0 0 Z " fill="#83317C" transform="translate(305,240)"/>
<path d="M0 0 C2.25 -0.25 2.25 -0.25 5 0 C7.3125 2 7.3125 2 9 4 C8.67 4.99 8.34 5.98 8 7 C7.4225 6.175 6.845 5.35 6.25 4.5 C5.13625 3.2625 5.13625 3.2625 4 2 C2.68 2 1.36 2 0 2 C0 1.34 0 0.68 0 0 Z " fill="#8C3174" transform="translate(288,183)"/>
<path d="M0 0 C0.33 0.66 0.66 1.32 1 2 C0.01 2 -0.98 2 -2 2 C-1.67 2.99 -1.34 3.98 -1 5 C-1.99 5 -2.98 5 -4 5 C-4.99 5.66 -5.98 6.32 -7 7 C-7.66 6.34 -8.32 5.68 -9 5 C-6 3 -6 3 -3 3 C-3 2.34 -3 1.68 -3 1 C-2.01 0.67 -1.02 0.34 0 0 Z " fill="#747BAC" transform="translate(137,56)"/>
<path d="M0 0 C4.455 0.99 4.455 0.99 9 2 C8.67 2.66 8.34 3.32 8 4 C7.443125 3.814375 6.88625 3.62875 6.3125 3.4375 C3.600867 2.92448835 1.65628961 3.3359276 -1 4 C-0.67 2.68 -0.34 1.36 0 0 Z " fill="#1D2A70" transform="translate(309,35)"/>
<path d="M0 0 C-0.99 0.495 -0.99 0.495 -2 1 C-2 1.66 -2 2.32 -2 3 C-3.32 3.33 -4.64 3.66 -6 4 C-5.67 3.34 -5.34 2.68 -5 2 C-6.32 1.34 -7.64 0.68 -9 0 C-5.93109813 -1.53445094 -3.29905734 -0.54984289 0 0 Z " fill="#485393" transform="translate(199,34)"/>
<path d="M0 0 C0.33 0.99 0.66 1.98 1 3 C0.01 3.66 -0.98 4.32 -2 5 C-1.67 5.66 -1.34 6.32 -1 7 C-1.99 6.67 -2.98 6.34 -4 6 C-4.33 5.01 -4.66 4.02 -5 3 C-2.25 0 -2.25 0 0 0 Z " fill="#8A4C95" transform="translate(149,434)"/>
<path d="M0 0 C0.99 0.33 1.98 0.66 3 1 C-1.75 5.875 -1.75 5.875 -4 7 C-3.67 5.02 -3.34 3.04 -3 1 C-2.01 1.33 -1.02 1.66 0 2 C0 1.34 0 0.68 0 0 Z " fill="#96669E" transform="translate(397,408)"/>
<path d="M0 0 C0.99 0 1.98 0 3 0 C3 3.3 3 6.6 3 10 C-0.00617269 6.99382731 0.40414684 4.17618402 0 0 Z " fill="#252C78" transform="translate(402,386)"/>
<path d="M0 0 C2.475 0.495 2.475 0.495 5 1 C5.33 2.32 5.66 3.64 6 5 C6.66 5 7.32 5 8 5 C7.67 5.66 7.34 6.32 7 7 C3.00003714 5.66667905 2.16217663 3.5042173 0 0 Z " fill="#9B3671" transform="translate(128,364)"/>
<path d="M0 0 C1.2380014 3.57644848 0.74926071 6.33694766 0 10 C-0.28875 9.360625 -0.5775 8.72125 -0.875 8.0625 C-1.82823451 5.84793921 -1.82823451 5.84793921 -4 5 C-1.125 1.125 -1.125 1.125 0 0 Z " fill="#646AA6" transform="translate(469,281)"/>
<path d="M0 0 C0.33 0 0.66 0 1 0 C1 2.31 1 4.62 1 7 C-0.98 7.99 -0.98 7.99 -3 9 C-2.30058404 5.85262818 -1.23921302 2.97411124 0 0 Z " fill="#8A3276" transform="translate(314,256)"/>
<path d="M0 0 C2.64 0.33 5.28 0.66 8 1 C5.35261084 2.4606285 4.10551666 3 1 3 C0.67 3.99 0.34 4.98 0 6 C0 4.02 0 2.04 0 0 Z " fill="#D75475" transform="translate(187,245)"/>
<path d="M0 0 C0.33 0.99 0.66 1.98 1 3 C-1.97 5.475 -1.97 5.475 -5 8 C-5.66 7.67 -6.32 7.34 -7 7 C-4.69 4.69 -2.38 2.38 0 0 Z " fill="#8F3477" transform="translate(284,212)"/>
<path d="M0 0 C0.66 0 1.32 0 2 0 C1.34 2.97 0.68 5.94 0 9 C-0.66 9 -1.32 9 -2 9 C-1.51421457 5.87709365 -1.0013988 3.00419641 0 0 Z " fill="#37407E" transform="translate(34,196)"/>
<path d="M0 0 C3.375 -0.1875 3.375 -0.1875 7 0 C7.66 0.99 8.32 1.98 9 3 C6.03 3 3.06 3 0 3 C0 2.01 0 1.02 0 0 Z " fill="#8F3377" transform="translate(246,185)"/>
<path d="M0 0 C2.97 0.99 5.94 1.98 9 3 C4.80104745 4.04973814 2.20594226 3.72795155 -2 3 C-1.34 2.01 -0.68 1.02 0 0 Z " fill="#D75172" transform="translate(248,174)"/>
<path d="M0 0 C1.32 0.33 2.64 0.66 4 1 C1.69 2.65 -0.62 4.3 -3 6 C-3.33 5.01 -3.66 4.02 -4 3 C-3.01 2.67 -2.02 2.34 -1 2 C-0.67 1.34 -0.34 0.68 0 0 Z " fill="#8D3376" transform="translate(357,375)"/>
<path d="M0 0 C2 2 2 2 2 6 C0.68 5.67 -0.64 5.34 -2 5 C-2 4.01 -2 3.02 -2 2 C-1.34 2 -0.68 2 0 2 C0 1.34 0 0.68 0 0 Z " fill="#72368F" transform="translate(390,360)"/>
<path d="M0 0 C0 0.66 0 1.32 0 2 C-3.96 3.98 -3.96 3.98 -8 6 C-8 4 -8 4 -6.25 1.875 C-4 0 -4 0 0 0 Z " fill="#322A7A" transform="translate(128,341)"/>
<path d="M0 0 C0.66 0.33 1.32 0.66 2 1 C1.67 1.99 1.34 2.98 1 4 C-1.64 4.33 -4.28 4.66 -7 5 C-4.702779 3.25728062 -2.40133271 1.60088848 0 0 Z " fill="#CE4C6D" transform="translate(270,214)"/>
<path d="M0 0 C0.99 0.99 1.98 1.98 3 3 C2.01 3.495 2.01 3.495 1 4 C0.34786708 6.02463255 0.34786708 6.02463255 0 8 C-0.66 6.02 -1.32 4.04 -2 2 C-1.34 2 -0.68 2 0 2 C0 1.34 0 0.68 0 0 Z " fill="#404E96" transform="translate(441,132)"/>
<path d="M0 0 C0.33 0.99 0.66 1.98 1 3 C1.66 3 2.32 3 3 3 C2.67 3.99 2.34 4.98 2 6 C0.68 5.67 -0.64 5.34 -2 5 C-1.125 1.125 -1.125 1.125 0 0 Z " fill="#192A71" transform="translate(435,124)"/>
<path d="M0 0 C1.98 0.66 3.96 1.32 6 2 C6 2.99 6 3.98 6 5 C4.68 5 3.36 5 2 5 C2 4.34 2 3.68 2 3 C1.34 3 0.68 3 0 3 C0 2.01 0 1.02 0 0 Z " fill="#3B4884" transform="translate(349,49)"/>
<path d="M0 0 C0.66 0.33 1.32 0.66 2 1 C2 1.66 2 2.32 2 3 C-3.75 6 -3.75 6 -6 6 C-5.67 5.01 -5.34 4.02 -5 3 C-3.35 2.67 -1.7 2.34 0 2 C0 1.34 0 0.68 0 0 Z " fill="#8E5D98" transform="translate(345,442)"/>
<path d="M0 0 C0.66 0.33 1.32 0.66 2 1 C1.6875 2.9375 1.6875 2.9375 1 5 C0.01 5.33 -0.98 5.66 -2 6 C-2 4.68 -2 3.36 -2 2 C-1.34 2 -0.68 2 0 2 C0 1.34 0 0.68 0 0 Z " fill="#DB4F69" transform="translate(228,263)"/>
<path d="M0 0 C1.98 0 3.96 0 6 0 C4.25 3.875 4.25 3.875 2 5 C2 4.01 2 3.02 2 2 C1.34 2 0.68 2 0 2 C0 1.34 0 0.68 0 0 Z " fill="#DF5068" transform="translate(305,262)"/>
<path d="M0 0 C5.53846154 0.61538462 5.53846154 0.61538462 7.875 2.5625 C8.431875 3.2740625 8.431875 3.2740625 9 4 C8.01 4.495 8.01 4.495 7 5 C4.5249829 3.88568235 2.32116581 2.41849022 0 1 C0 0.67 0 0.34 0 0 Z " fill="#933372" transform="translate(213,253)"/>
<path d="M0 0 C0.99 0.33 1.98 0.66 3 1 C2.67 3.31 2.34 5.62 2 8 C1.34 7.67 0.68 7.34 0 7 C0 4.69 0 2.38 0 0 Z " fill="#2A3981" transform="translate(49,151)"/>
<path d="M0 0 C0.66 0.99 1.32 1.98 2 3 C1.01 4.485 1.01 4.485 0 6 C-1.32 6 -2.64 6 -4 6 C-4 5.34 -4 4.68 -4 4 C-3.34 4 -2.68 4 -2 4 C-2 3.34 -2 2.68 -2 2 C-1.34 2 -0.68 2 0 2 C0 1.34 0 0.68 0 0 Z " fill="#5C689C" transform="translate(89,93)"/>
<path d="M0 0 C-1.36983503 3.16115776 -1.9890638 3.9927092 -5 6 C-5.33 4.68 -5.66 3.36 -6 2 C-2.25 0 -2.25 0 0 0 Z " fill="#344080" transform="translate(101,85)"/>
<path d="M0 0 C2.88437779 1.29299694 4.87219421 2.65941363 7 5 C5.35 5 3.7 5 2 5 C1.34 3.35 0.68 1.7 0 0 Z " fill="#606999" transform="translate(394,78)"/>
</svg>
